<?xml version="1.0" encoding="UTF-8" standalone="no"?>
<!DOCTYPE svg PUBLIC "-//W3C//DTD SVG 1.1//EN" "http://www.w3.org/Graphics/SVG/1.1/DTD/svg11.dtd">
<svg width="100%" height="100%" viewBox="0 0 1517 657" version="1.1" xmlns="http://www.w3.org/2000/svg" xmlns:xlink="http://www.w3.org/1999/xlink" xml:space="preserve" xmlns:serif="http://www.serif.com/" style="fill-rule:evenodd;clip-rule:evenodd;stroke-linecap:round;stroke-linejoin:round;stroke-miterlimit:1.5;">
    <rect id="one-channel" serif:id="one channel" x="0" y="0.824" width="1516.46" height="655.24" style="fill:white;"/>
    <g id="Hydrogen">
        <g>
            <path id="EdgeCuts" d="M959.661,479.993l-402.093,0l-0,-22.933c-0,-6.961 -5.652,-12.613 -12.614,-12.613c-6.961,-0 -12.613,5.652 -12.613,12.613l0,22.933l-44.719,0l-0,-303.099l44.643,0l-0,22.933c-0,7.004 5.686,12.69 12.689,12.69c7.004,0 12.69,-5.686 12.69,-12.69l0,-22.933c0,0 401.787,0 401.787,0l0,22.933c0,7.004 5.687,12.69 12.69,12.69c7.004,0 12.69,-5.686 12.69,-12.69l-0,-22.933l44.031,0l0,303.099l-43.955,0l0,-22.933c0,-6.961 -5.652,-12.613 -12.613,-12.613c-6.961,-0 -12.613,5.652 -12.613,12.613l-0,22.933Z" style="fill:none;stroke:rgb(12,12,12);stroke-width:4.17px;"/>
            <g id="Gold">
                <circle cx="544.073" cy="277.96" r="36.311" style="fill:rgb(203,202,190);"/>
                <circle cx="544.073" cy="379.574" r="36.311" style="fill:rgb(203,202,190);"/>
                <path d="M830.753,305.189c21.588,0 29.293,10.729 40.503,22.83c-8.995,12.718 -21.028,20.5 -40.248,20.5c-19.934,-0 -28.558,-12.281 -28.558,-20.238c-0,-7.957 8.369,-23.092 28.303,-23.092Z" style="fill:rgb(179,179,179);"/>
            </g>
            <g>
                <circle cx="544.073" cy="277.96" r="36.311" style="fill:rgb(203,202,190);"/>
                <circle cx="544.073" cy="379.574" r="36.311" style="fill:rgb(203,202,190);"/>
                <path d="M830.753,305.189c21.588,0 29.293,10.729 40.503,22.83c-8.995,12.718 -21.028,20.5 -40.248,20.5c-19.934,-0 -28.558,-12.281 -28.558,-20.238c-0,-7.957 8.369,-23.092 28.303,-23.092Z" style="fill:rgb(179,179,179);"/>
            </g>
            <g>
                <circle cx="544.073" cy="277.96" r="36.311" style="fill:rgb(203,202,190);"/>
                <circle cx="544.073" cy="379.574" r="36.311" style="fill:rgb(203,202,190);"/>
                <path d="M830.753,305.189c21.588,0 29.293,10.729 40.503,22.83c-8.995,12.718 -21.028,20.5 -40.248,20.5c-19.934,-0 -28.558,-12.281 -28.558,-20.238c-0,-7.957 8.369,-23.092 28.303,-23.092Z" style="fill:rgb(179,179,179);"/>
            </g>
        </g>
        <g id="SIlk">
            <path d="M869.197,330.774l1.451,6.445c0.105,0.465 -0.04,0.952 -0.383,1.284c-0.342,0.332 -0.833,0.462 -1.295,0.343l-5.903,-1.521c2.2,-1.961 4.232,-4.153 6.13,-6.551Z" style="fill:rgb(131,133,136);"/>
            <path d="M816.779,345.96c3.882,1.581 8.606,2.559 14.229,2.559c4.267,-0 8.179,-0.384 11.785,-1.12c0.007,0.102 0.01,0.205 0.01,0.308c0,1.532 -4.112,3.991 -5.644,3.991l-16.696,0c-1.531,0 -3.684,-3.769 -3.684,-5.301l-0,-0.437Z" style="fill:rgb(131,133,136);"/>
            <path d="M863.315,319.43l6.215,-1.22c0.367,-0.073 0.746,0.052 0.999,0.328c0.253,0.276 0.345,0.664 0.242,1.024l-1.734,6.037c-1.95,-2.14 -3.824,-4.215 -5.722,-6.169Z" style="fill:rgb(131,133,136);"/>
            <path d="M806.022,334.456l0.052,0.051c4.555,4.438 12.59,10.091 24.907,10.091c11.397,0 19.53,-2.751 26.38,-6.656c0.032,-0.018 0.052,-0.053 0.052,-0.09l0,-0.061c0,-0.036 -0.019,-0.07 -0.05,-0.089c-0.032,-0.019 -0.071,-0.02 -0.103,-0.003c-6.939,3.683 -15.434,5.734 -26.252,5.734c-11.512,0 -20.519,-4.931 -24.789,-9.076l-0.051,-0.05l-0.058,-0.056c-0.286,-0.282 -0.54,-0.549 -0.764,-0.804c-0.029,-0.033 -0.075,-0.044 -0.115,-0.029c-0.041,0.016 -0.068,0.054 -0.068,0.098l0,0.079c0,0.029 0.012,0.057 0.034,0.077c0.261,0.241 0.536,0.502 0.825,0.784Zm0.234,-1.768c0.019,-0.03 0.041,-0.058 0.053,-0.055c-0.009,-0.019 -0.022,-0.036 -0.041,-0.048l0.036,0.023c-0.007,-0.014 -0.017,-0.026 -0.03,-0.035c0.117,0.084 0.239,0.167 0.366,0.247c4.285,2.706 12.71,5.601 24.364,5.601c10.237,0 18.721,-1.57 25.551,-3.809c0.032,-0.01 0.067,-0.005 0.094,0.015c0.027,0.02 0.043,0.051 0.043,0.085l-0,0.069c-0,0.044 -0.028,0.083 -0.069,0.098c-6.88,2.486 -14.933,4.57 -25.615,4.57c-12.267,0 -19.969,-3.604 -24.479,-6.453c-0.126,-0.079 -0.25,-0.157 -0.372,-0.234c0.013,0.008 0.028,0.013 0.044,0.015l-0.003,-0.002c-0.029,-0.006 -0.09,-0.029 -0.09,-0.102c0,-0.002 0,-0.015 0,-0.015c0,-0 0.105,0.104 0.105,0.104l0.004,-0.009c0.006,-0.011 0.019,-0.034 0.033,-0.056l-0.037,-0.024l-0,-0.016c0.014,0.011 0.028,0.021 0.043,0.031Zm0.941,-11.326l0.004,0.001l0.008,-0c0.019,-0.002 0.036,-0.008 0.051,-0.018c4.366,-2.983 12.432,-5.956 23.515,-5.956c9.655,-0 16.609,1.112 22.29,3.064c0.004,0.004 0.007,0.008 0.011,0.011c0.011,0.011 0.042,0.036 0.092,0.027c0.012,-0.002 0.043,-0.014 0.058,-0.025c0.017,-0.012 0.028,-0.026 0.033,-0.037c0.019,-0.034 0.016,-0.066 0.004,-0.094c-0.008,-0.018 -0.023,-0.04 -0.054,-0.053l-0.005,-0.002c-5.716,-2.21 -12.65,-4.021 -22.451,-4.021c-11.764,-0 -19.102,3.694 -23.612,6.905l0.002,0.008l-0,0.001l0.054,0.176l-0.1,-0.099l0,0.008c0,0.084 0.08,0.101 0.1,0.104Zm-1.931,-0.712l0.001,0.001l0.007,-0c0.033,-0.002 0.063,-0.02 0.081,-0.047c3.635,-5.573 12.118,-10.329 25.398,-10.329c11.414,-0 18.867,2.512 25.035,6.351c0.016,0.011 0.035,0.016 0.055,0.016l0.21,0c0.045,0 0.086,-0.03 0.099,-0.074c0.014,-0.043 -0.003,-0.091 -0.041,-0.117c-6.952,-4.703 -13.995,-7.117 -25.413,-7.484c-14.352,-0.462 -21.63,5.48 -25.518,11.522l0.087,0.161l-0.001,-0c-0.01,-0.014 -0.103,-0.128 -0.103,-0.104c0,0.089 0.093,0.103 0.103,0.104Z" style="fill:rgb(131,133,136);"/>
            <path d="M708.286,199.734l2.884,0l-1.333,6.247l4.369,0l1.332,-6.247l2.884,0l-3.255,15.291l-2.883,-0l1.332,-6.291l-4.369,-0l-1.332,6.291l-2.862,-0l3.233,-15.291Z" style="fill:rgb(131,133,136);fill-rule:nonzero;"/>
            <path d="M723.402,210.481c-0.029,0.102 -0.051,0.211 -0.065,0.328c-0.015,0.116 -0.022,0.233 -0.022,0.349c-0,0.554 0.16,0.972 0.48,1.256c0.321,0.284 0.758,0.426 1.311,0.426c0.786,0 1.391,-0.255 1.813,-0.764c0.422,-0.51 0.735,-1.245 0.939,-2.206l1.202,-5.68l2.752,0l-2.862,13.5c-0.101,0.495 -0.342,0.902 -0.72,1.223c-0.379,0.32 -0.816,0.48 -1.311,0.48l-6.335,0l0,-2.621l5.221,0c0.393,0 0.633,-0.218 0.721,-0.655l0.568,-2.665l-0.393,-0c-0.321,0.655 -0.729,1.132 -1.224,1.431c-0.495,0.298 -1.114,0.447 -1.856,0.447c-0.437,0 -0.845,-0.076 -1.224,-0.229c-0.378,-0.153 -0.713,-0.371 -1.004,-0.655c-0.292,-0.284 -0.521,-0.634 -0.689,-1.049c-0.167,-0.415 -0.251,-0.892 -0.251,-1.43c0,-0.365 0.044,-0.743 0.131,-1.136l0.852,-4.041l-0.218,-0.153l-1.311,0.917l-1.376,-2.053l1.595,-1.071c0.276,-0.189 0.56,-0.327 0.851,-0.415c0.292,-0.087 0.583,-0.131 0.874,-0.131c0.321,0 0.626,0.055 0.918,0.164c0.291,0.109 0.546,0.262 0.764,0.459c0.219,0.196 0.393,0.437 0.524,0.721c0.132,0.284 0.197,0.608 0.197,0.972c0,0.204 -0.022,0.422 -0.065,0.655l-0.787,3.626Z" style="fill:rgb(131,133,136);fill-rule:nonzero;"/>
            <path d="M742.253,212.425l0.219,0.153l1.179,-0.83l1.376,2.053l-1.419,0.962c-0.306,0.203 -0.608,0.349 -0.907,0.436c-0.298,0.088 -0.593,0.131 -0.885,0.131c-0.553,0 -1.048,-0.152 -1.485,-0.458c-0.437,-0.306 -0.714,-0.736 -0.83,-1.289l-0.393,-0c-0.131,0.248 -0.284,0.477 -0.459,0.688c-0.175,0.211 -0.389,0.393 -0.644,0.546c-0.255,0.153 -0.554,0.277 -0.896,0.371c-0.342,0.095 -0.746,0.142 -1.212,0.142c-0.568,0 -1.092,-0.112 -1.573,-0.338c-0.481,-0.226 -0.899,-0.539 -1.256,-0.939c-0.357,-0.401 -0.637,-0.871 -0.841,-1.409c-0.204,-0.539 -0.306,-1.129 -0.306,-1.77c0,-0.975 0.131,-1.886 0.393,-2.73c0.263,-0.845 0.641,-1.584 1.136,-2.217c0.495,-0.634 1.103,-1.133 1.824,-1.497c0.721,-0.364 1.533,-0.546 2.436,-0.546c0.772,0 1.398,0.175 1.878,0.525c0.481,0.349 0.794,0.801 0.94,1.354l0.393,-0l1.332,-6.335l2.774,0l-1.354,6.335l-1.42,6.662Zm-5.286,0.284c0.524,0 0.99,-0.105 1.398,-0.317c0.408,-0.211 0.746,-0.491 1.016,-0.841c0.269,-0.349 0.477,-0.76 0.622,-1.234c0.146,-0.473 0.219,-0.972 0.219,-1.496c-0,-0.684 -0.197,-1.241 -0.59,-1.671c-0.393,-0.43 -0.917,-0.644 -1.573,-0.644c-0.524,-0 -0.99,0.105 -1.398,0.316c-0.407,0.211 -0.75,0.492 -1.026,0.841c-0.277,0.35 -0.488,0.761 -0.634,1.234c-0.145,0.474 -0.218,0.973 -0.218,1.497c-0,0.611 0.178,1.15 0.535,1.616c0.357,0.466 0.906,0.699 1.649,0.699Z" style="fill:rgb(131,133,136);fill-rule:nonzero;"/>
            <path d="M749.047,206.768l-0.219,-0.131l-1.725,1.267l-1.464,-1.966l1.748,-1.311c0.335,-0.248 0.688,-0.433 1.059,-0.557c0.371,-0.124 0.724,-0.186 1.059,-0.186c0.583,0 1.093,0.161 1.529,0.481c0.437,0.32 0.699,0.772 0.787,1.354l0.393,0c0.291,-0.611 0.699,-1.07 1.223,-1.376c0.525,-0.306 1.114,-0.459 1.77,-0.459c0.83,0 1.503,0.259 2.02,0.776c0.517,0.517 0.776,1.234 0.776,2.151c-0,0.19 -0.011,0.375 -0.033,0.557c-0.022,0.182 -0.062,0.405 -0.12,0.667l-0.109,0.48l-2.928,0.219l0.066,-0.306c0.044,-0.219 0.066,-0.415 0.066,-0.59c-0,-0.422 -0.117,-0.757 -0.35,-1.005c-0.233,-0.247 -0.582,-0.371 -1.048,-0.371c-0.583,-0 -1.045,0.196 -1.388,0.59c-0.342,0.393 -0.593,0.954 -0.753,1.682l-0.787,3.669l2.622,0l-0,2.622l-7.471,-0l0,-2.622l2.097,0l1.18,-5.635Z" style="fill:rgb(131,133,136);fill-rule:nonzero;"/>
            <path d="M770.716,208.253c-0,1.019 -0.146,1.962 -0.437,2.829c-0.291,0.866 -0.721,1.613 -1.289,2.239c-0.568,0.626 -1.278,1.118 -2.13,1.474c-0.852,0.357 -1.838,0.535 -2.96,0.535c-0.64,0 -1.241,-0.094 -1.802,-0.284c-0.56,-0.189 -1.052,-0.469 -1.474,-0.84c-0.422,-0.372 -0.757,-0.827 -1.005,-1.366c-0.247,-0.539 -0.371,-1.15 -0.371,-1.835c-0,-1.121 0.174,-2.122 0.524,-3.003c0.349,-0.881 0.826,-1.627 1.431,-2.239c0.604,-0.612 1.318,-1.078 2.14,-1.398c0.823,-0.32 1.708,-0.481 2.654,-0.481c0.685,0 1.318,0.106 1.901,0.317c0.582,0.211 1.081,0.506 1.496,0.885c0.415,0.378 0.739,0.837 0.972,1.376c0.233,0.539 0.35,1.136 0.35,1.791Zm-6.401,4.5c0.525,-0.015 1.009,-0.131 1.453,-0.35c0.444,-0.218 0.823,-0.506 1.136,-0.862c0.313,-0.357 0.557,-0.776 0.732,-1.256c0.174,-0.481 0.262,-0.991 0.262,-1.53c-0,-0.757 -0.204,-1.328 -0.612,-1.714c-0.408,-0.386 -0.954,-0.579 -1.638,-0.579c-0.524,-0 -1.005,0.113 -1.442,0.338c-0.437,0.226 -0.815,0.525 -1.136,0.896c-0.32,0.371 -0.568,0.797 -0.742,1.278c-0.175,0.48 -0.262,0.983 -0.262,1.507c-0,0.743 0.203,1.307 0.611,1.693c0.408,0.386 0.954,0.579 1.638,0.579Z" style="fill:rgb(131,133,136);fill-rule:nonzero;"/>
            <path d="M780.283,213.452l-0.393,-0c-0.16,0.247 -0.342,0.484 -0.546,0.71c-0.204,0.226 -0.451,0.426 -0.743,0.601c-0.291,0.174 -0.64,0.313 -1.048,0.415c-0.408,0.101 -0.881,0.152 -1.42,0.152c-0.524,0 -1.016,-0.087 -1.474,-0.262c-0.459,-0.174 -0.856,-0.437 -1.191,-0.786c-0.335,-0.35 -0.601,-0.79 -0.797,-1.322c-0.197,-0.531 -0.295,-1.154 -0.295,-1.867c-0,-0.903 0.135,-1.788 0.404,-2.654c0.269,-0.867 0.666,-1.639 1.19,-2.316c0.525,-0.677 1.176,-1.219 1.955,-1.627c0.78,-0.408 1.686,-0.612 2.72,-0.612c0.888,0 1.562,0.171 2.021,0.514c0.458,0.342 0.746,0.797 0.862,1.365l0.394,-0l0.327,-1.573l2.753,0l-2.862,13.5c-0.117,0.495 -0.364,0.902 -0.743,1.223c-0.378,0.32 -0.815,0.48 -1.31,0.48l-6.728,0l-0,-2.621l5.635,0c0.394,0 0.634,-0.218 0.721,-0.655l0.568,-2.665Zm-2.73,-0.743c0.524,0 1.008,-0.109 1.452,-0.327c0.445,-0.219 0.83,-0.51 1.158,-0.874c0.328,-0.364 0.583,-0.787 0.765,-1.267c0.182,-0.481 0.273,-0.983 0.273,-1.507c-0,-0.699 -0.204,-1.245 -0.612,-1.639c-0.408,-0.393 -0.983,-0.589 -1.726,-0.589c-0.553,-0 -1.055,0.109 -1.507,0.327c-0.451,0.219 -0.833,0.506 -1.147,0.863c-0.313,0.357 -0.557,0.772 -0.731,1.245c-0.175,0.473 -0.262,0.958 -0.262,1.453c-0,0.772 0.214,1.35 0.644,1.736c0.43,0.386 0.994,0.579 1.693,0.579Z" style="fill:rgb(131,133,136);fill-rule:nonzero;"/>
            <path d="M788.868,210.503c-0.029,0.116 -0.044,0.24 -0.044,0.371c0,0.525 0.2,0.961 0.601,1.311c0.4,0.349 0.928,0.524 1.584,0.524c0.684,0 1.23,-0.124 1.638,-0.371c0.408,-0.248 0.721,-0.539 0.939,-0.874l2.184,1.376c-0.174,0.292 -0.404,0.583 -0.688,0.874c-0.284,0.291 -0.633,0.557 -1.048,0.797c-0.415,0.241 -0.903,0.437 -1.464,0.59c-0.56,0.153 -1.212,0.229 -1.955,0.229c-0.67,0 -1.285,-0.105 -1.845,-0.316c-0.561,-0.211 -1.042,-0.503 -1.442,-0.874c-0.401,-0.371 -0.714,-0.816 -0.939,-1.332c-0.226,-0.517 -0.339,-1.089 -0.339,-1.715c0,-0.99 0.149,-1.922 0.448,-2.796c0.298,-0.874 0.732,-1.639 1.3,-2.294c0.567,-0.655 1.266,-1.172 2.097,-1.551c0.83,-0.378 1.783,-0.568 2.861,-0.568c0.757,0 1.416,0.12 1.977,0.361c0.561,0.24 1.023,0.56 1.387,0.961c0.364,0.4 0.637,0.855 0.819,1.365c0.182,0.51 0.273,1.034 0.273,1.573c0,0.175 -0.011,0.353 -0.033,0.535c-0.021,0.182 -0.061,0.419 -0.12,0.71l-0.24,1.114l-7.951,-0Zm3.451,-4.128c-0.684,-0 -1.278,0.171 -1.78,0.513c-0.502,0.342 -0.877,0.761 -1.125,1.256l5.111,-0c0,-0.554 -0.171,-0.987 -0.513,-1.3c-0.342,-0.313 -0.906,-0.469 -1.693,-0.469Z" style="fill:rgb(131,133,136);fill-rule:nonzero;"/>
            <path d="M806.911,208.734c0.058,-0.277 0.087,-0.51 0.087,-0.699c0,-0.525 -0.153,-0.932 -0.459,-1.224c-0.305,-0.291 -0.72,-0.436 -1.245,-0.436c-0.655,-0 -1.216,0.233 -1.682,0.699c-0.466,0.466 -0.779,1.092 -0.939,1.878l-1.289,6.073l-2.752,-0l2.294,-10.835l2.643,0l-0.372,1.748l0.394,-0c0.349,-0.728 0.811,-1.253 1.387,-1.573c0.575,-0.32 1.212,-0.481 1.911,-0.481c0.917,0 1.649,0.277 2.195,0.83c0.546,0.554 0.819,1.333 0.819,2.338c0,0.233 -0.014,0.447 -0.043,0.644c-0.029,0.197 -0.066,0.411 -0.11,0.644l-0.873,4.085l0.218,0.153l0.939,-0.655l1.377,2.053l-1.18,0.787c-0.553,0.378 -1.143,0.567 -1.769,0.567c-0.321,0 -0.626,-0.054 -0.918,-0.163c-0.291,-0.11 -0.546,-0.262 -0.764,-0.459c-0.219,-0.197 -0.393,-0.437 -0.525,-0.721c-0.131,-0.284 -0.196,-0.608 -0.196,-0.972c-0,-0.189 0.022,-0.408 0.065,-0.655l0.787,-3.626Z" style="fill:rgb(131,133,136);fill-rule:nonzero;"/>
            <path d="M823.899,443.029c-3.903,0.263 -5.547,2.852 -6.42,5.579c-0.768,2.399 -1.629,4.875 -2.566,6.147c-0.52,0.706 -1.099,1.069 -1.663,1.069c-0.559,-0 -0.969,-0.295 -1.231,-0.849c-0.4,-0.843 -0.39,-2.494 -0.284,-4.148c0.083,-1.297 0.211,-2.594 0.155,-3.425c-0.008,-0.12 -0.033,-0.256 -0.055,-0.357c-0.048,0.025 -0.097,0.059 -0.146,0.096c-0.184,0.139 -0.366,0.34 -0.551,0.579c-0.64,0.831 -1.272,2.089 -1.871,3.182c-0.51,0.933 -1.007,1.749 -1.449,2.159c-0.301,0.279 -0.606,0.403 -0.88,0.403c-0.517,0 -0.889,-0.315 -1.032,-0.973c-0.183,-0.841 0.072,-2.491 0.372,-4.139c0.238,-1.306 0.495,-2.611 0.504,-3.446c0.001,-0.107 -0.011,-0.227 -0.023,-0.32c-0.072,0.042 -0.143,0.104 -0.219,0.175c-0.231,0.213 -0.46,0.52 -0.693,0.888c-0.774,1.224 -1.544,3.077 -2.247,4.687c-0.579,1.324 -1.12,2.49 -1.574,3.073c-0.326,0.418 -0.675,0.587 -0.947,0.587c-0.517,-0 -0.871,-0.269 -1.074,-0.769c-0.279,-0.687 -0.176,-2.033 0.022,-3.379c0.123,-0.835 0.27,-1.671 0.332,-2.314c0.016,-0.157 0.018,-0.335 0.015,-0.479c-0.046,0.022 -0.095,0.048 -0.148,0.074c-0.427,0.215 -0.975,0.562 -1.598,0.946c-1.091,0.673 -2.399,1.442 -3.695,1.898c-0.264,1.045 -0.69,2.039 -1.252,2.814c-0.747,1.03 -1.731,1.679 -2.877,1.679c-1.008,-0 -1.635,-0.512 -2.033,-1.239c-0.336,-0.613 -0.493,-1.398 -0.588,-2.098c-0.043,-0.316 -0.101,-0.692 -0.141,-0.95c-0.207,0.089 -0.484,0.212 -0.734,0.33c-0.44,0.209 -0.953,0.438 -1.504,0.625c-0.232,1.092 -0.631,2.133 -1.167,2.941c-0.706,1.065 -1.652,1.729 -2.742,1.729c-0.969,-0 -1.605,-0.539 -2.015,-1.325c-0.341,-0.653 -0.515,-1.49 -0.624,-2.237c-0.046,-0.318 -0.081,-0.618 -0.114,-0.874c-0.132,0.153 -0.272,0.332 -0.422,0.521c-0.444,0.56 -0.961,1.199 -1.541,1.625c-0.46,0.337 -0.96,0.545 -1.491,0.545c-0.955,0 -1.7,-0.464 -2.244,-1.27c-0.447,-0.663 -0.752,-1.581 -0.922,-2.641c-0.781,0.57 -1.647,1.064 -2.494,1.514c-0.004,0.111 -0.011,0.221 -0.022,0.331c-0.113,1.18 -0.677,2.474 -1.4,3.319c-0.557,0.654 -1.22,1.036 -1.842,1.036c-0.324,0 -0.701,-0.125 -1.032,-0.367c-0.472,-0.345 -0.845,-0.918 -0.845,-1.599c-0,-0.686 0.518,-1.348 1.437,-1.953c0.688,-0.453 1.613,-0.902 2.594,-1.406c-0.061,-0.664 -0.262,-1.305 -0.586,-1.772c-0.243,-0.35 -0.554,-0.6 -0.947,-0.6c-1.216,-0 -2.024,0.705 -2.604,1.596c-0.649,0.999 -1.023,2.23 -1.307,3.152c-0.198,0.641 -0.367,1.15 -0.528,1.4c-0.196,0.304 -0.442,0.4 -0.651,0.4c-0.112,0 -0.232,-0.029 -0.349,-0.117c-0.073,-0.055 -0.2,-0.193 -0.284,-0.455c-0.131,-0.409 -0.292,-1.419 -0.423,-2.772c-0.522,0.835 -1.035,1.596 -1.517,2.247c-0.767,1.037 -1.464,1.8 -1.993,2.169c-0.33,0.23 -0.627,0.326 -0.861,0.326c-1.019,0 -1.591,-0.715 -1.768,-1.914c-0.199,-1.355 0.12,-3.405 0.429,-5.188c0.157,-0.905 0.308,-1.737 0.374,-2.359c0.017,-0.168 0.02,-0.355 0.019,-0.496c-0.47,0.039 -0.983,0.151 -1.502,0.264c-0.347,1.895 -1.409,4.164 -2.795,5.802c-1.171,1.384 -2.579,2.304 -3.958,2.304c-1.671,0 -2.879,-0.652 -3.701,-1.654c-1.038,0.869 -2.188,1.41 -3.332,1.41c-1.208,0 -2.213,-0.918 -2.908,-2.497c-0.228,-0.52 -0.427,-1.113 -0.595,-1.761c-0.54,1.09 -1.085,2.08 -1.612,2.91c-0.63,0.99 -1.24,1.758 -1.784,2.218c-0.465,0.392 -0.91,0.575 -1.291,0.575c-0.827,-0 -1.413,-0.563 -1.739,-1.571c-0.37,-1.143 -0.418,-2.928 -0.399,-4.713c0.018,-1.691 0.091,-3.381 -0.05,-4.463c-0.032,-0.243 -0.073,-0.451 -0.134,-0.612c-0.01,-0.026 -0.026,-0.057 -0.04,-0.083c-0.035,0.022 -0.068,0.06 -0.107,0.097c-0.151,0.144 -0.298,0.355 -0.448,0.611c-0.527,0.9 -1.042,2.309 -1.551,3.716c-0.625,1.73 -1.244,3.457 -1.834,4.339c-0.38,0.569 -0.812,0.827 -1.18,0.827c-0.424,0 -0.788,-0.26 -0.995,-0.83c-0.265,-0.729 -0.282,-2.157 -0.272,-3.587c0.007,-1.121 0.025,-2.243 -0.106,-2.96c-0.022,-0.12 -0.071,-0.26 -0.102,-0.343c-0.251,0.054 -0.46,0.27 -0.676,0.544c-0.535,0.681 -1.001,1.748 -1.494,2.811c-0.538,1.16 -1.108,2.314 -1.784,3.057c-0.544,0.597 -1.164,0.945 -1.865,0.945c-1.117,-0 -1.719,-0.793 -1.858,-2.19c-0.16,-1.602 0.293,-4.107 0.729,-6.611c0.157,-0.899 0.312,-1.797 0.43,-2.65c-0.201,0.039 -0.411,0.06 -0.628,0.06c-2.277,-0 -2.974,-2.13 -2.544,-3.872c0.298,-1.207 1.145,-2.151 2.232,-2.151c1.245,0 1.916,0.795 2.147,2.153c0.083,0.488 0.104,1.06 0.082,1.69c0.076,-0.104 0.148,-0.215 0.216,-0.33c0.553,-0.94 0.843,-2.195 0.881,-3.448c0.037,-1.25 -0.176,-2.502 -0.662,-3.44c-0.423,-0.818 -1.057,-1.39 -1.946,-1.39c-1.485,-0 -2.722,0.886 -3.678,2.271c-1.547,2.239 -2.358,5.756 -2.23,9.323c0.165,4.596 1.153,9.279 0.614,11.675c-0.172,0.763 -0.496,1.324 -0.972,1.663c-0.337,0.24 -0.756,0.377 -1.276,0.377c-0.899,0 -1.68,-0.554 -2.322,-1.461c-0.815,-1.153 -1.426,-2.893 -1.915,-4.41c-0.308,-0.953 -0.566,-1.812 -0.806,-2.345c-0.009,-0.022 -0.02,-0.044 -0.031,-0.066l-0.028,0.039c-0.287,0.43 -0.609,1.122 -0.963,1.889c-0.668,1.448 -1.44,3.143 -2.236,4.033c-0.455,0.509 -0.944,0.775 -1.409,0.775c-0.548,-0 -1.021,-0.373 -1.3,-1.176c-0.43,-1.238 -0.473,-3.724 -0.443,-6.538c0.038,-3.478 0.166,-7.478 -0.347,-10.121c-0.156,-0.807 -0.368,-1.479 -0.678,-1.946c-0.23,-0.347 -0.514,-0.564 -0.895,-0.564c-0.656,-0 -1.114,0.565 -1.483,1.323c-0.68,1.398 -0.97,3.489 -0.937,5.203c0.054,2.842 1.016,4.649 1.016,4.649c0.143,0.266 0.044,0.597 -0.222,0.74c-0.266,0.144 -0.598,0.044 -0.741,-0.222c0,0 -1.086,-1.997 -1.146,-5.146c-0.037,-1.88 0.301,-4.17 1.047,-5.703c0.582,-1.196 1.43,-1.938 2.466,-1.938c1.159,-0 1.981,0.914 2.438,2.512c0.57,1.991 0.637,5.101 0.612,8.212c-0.028,3.509 -0.175,7.019 0.241,8.808c0.059,0.256 0.129,0.47 0.218,0.634c0.049,0.09 0.074,0.179 0.154,0.179c0.113,0 0.218,-0.068 0.331,-0.157c0.187,-0.148 0.369,-0.363 0.552,-0.619c0.632,-0.887 1.231,-2.23 1.769,-3.396c0.453,-0.983 0.872,-1.847 1.223,-2.279c0.281,-0.346 0.582,-0.478 0.819,-0.478c0.219,0 0.484,0.108 0.708,0.425c0.226,0.318 0.473,0.966 0.74,1.783c0.478,1.461 1.06,3.508 1.906,4.91c0.463,0.767 0.975,1.358 1.662,1.358c0.527,-0 0.849,-0.265 1.037,-0.719c0.165,-0.401 0.243,-0.917 0.273,-1.521c0.123,-2.53 -0.629,-6.467 -0.769,-10.342c-0.137,-3.824 0.765,-7.585 2.423,-9.985c1.18,-1.709 2.744,-2.743 4.578,-2.743c1.062,-0 1.906,0.51 2.523,1.344c0.828,1.119 1.23,2.864 1.178,4.613c-0.053,1.745 -0.558,3.485 -1.47,4.602c-0.254,0.311 -0.539,0.576 -0.853,0.786c-0.123,1.05 -0.311,2.183 -0.509,3.315c-0.416,2.392 -0.871,4.783 -0.718,6.314c0.069,0.696 0.214,1.205 0.77,1.205c0.531,0 0.943,-0.398 1.334,-0.929c0.49,-0.665 0.912,-1.553 1.323,-2.439c0.533,-1.148 1.049,-2.292 1.627,-3.027c0.493,-0.627 1.051,-0.975 1.657,-0.975c0.403,-0 0.767,0.259 0.957,0.849c0.233,0.725 0.232,2.146 0.222,3.568c-0.007,1.116 -0.016,2.232 0.135,2.946c0.021,0.1 0.064,0.215 0.097,0.298c0.009,-0.008 0.017,-0.016 0.024,-0.024c0.136,-0.145 0.27,-0.357 0.409,-0.615c0.486,-0.905 0.984,-2.319 1.495,-3.733c0.628,-1.739 1.283,-3.474 1.938,-4.36c0.403,-0.547 0.851,-0.806 1.259,-0.806c0.423,-0 0.785,0.248 0.998,0.807c0.274,0.716 0.306,2.153 0.282,3.782c-0.027,1.938 -0.114,4.166 0.209,5.639c0.074,0.34 0.169,0.635 0.3,0.865c0.125,0.217 0.278,0.369 0.51,0.369c0.18,0 0.366,-0.132 0.585,-0.317c0.481,-0.406 1.01,-1.093 1.567,-1.968c0.71,-1.118 1.453,-2.534 2.169,-4.091c-0.249,-1.537 -0.367,-3.248 -0.357,-4.96c0.007,-1.281 0.086,-2.561 0.232,-3.768c-3.088,0.172 -4.626,0.44 -4.626,0.44c-0.237,0.041 -0.464,-0.118 -0.506,-0.356c-0.041,-0.238 0.118,-0.464 0.356,-0.506c-0,-0 1.627,-0.286 4.897,-0.461c0.303,-1.974 0.795,-3.688 1.451,-4.793c0.595,-1.001 1.346,-1.535 2.167,-1.535c0.705,-0 1.198,0.434 1.406,1.306c0.216,0.9 0.102,2.384 -0.273,4.173c-0.049,0.234 -0.102,0.473 -0.16,0.718c2.074,-0.013 4.488,0.029 7.244,0.163c0.241,0.012 0.427,0.217 0.416,0.458c-0.012,0.241 -0.217,0.427 -0.459,0.416c-2.84,-0.139 -5.313,-0.178 -7.419,-0.161c-0.737,2.819 -1.936,6.13 -3.239,9.015c0.198,1.118 0.474,2.124 0.832,2.938c0.481,1.094 1.071,1.844 1.907,1.844c0.946,0 1.88,-0.495 2.729,-1.236c-0.785,-1.509 -0.969,-3.456 -0.713,-5.201c0.202,-1.381 0.678,-2.618 1.306,-3.392c0.504,-0.619 1.112,-0.959 1.758,-0.959c0.698,0 1.216,0.222 1.588,0.583c0.519,0.504 0.761,1.322 0.706,2.324c-0.109,2.003 -1.392,4.813 -3.173,6.736l-0.076,0.081c0.64,0.794 1.584,1.309 2.908,1.309c0.935,-0 1.856,-0.589 2.688,-1.438c1.354,-1.382 2.449,-3.474 2.889,-5.293l0.013,-0.055c-0.272,0.041 -0.539,0.067 -0.793,0.067c-1.732,-0 -2.409,-1.525 -2.134,-2.753c0.193,-0.86 0.837,-1.561 1.864,-1.561c0.696,0 1.217,0.225 1.595,0.594c0.516,0.502 0.771,1.313 0.751,2.306c0.602,-0.131 1.192,-0.252 1.713,-0.252c0.283,-0 0.512,0.129 0.655,0.428c0.08,0.167 0.13,0.447 0.117,0.822c-0.023,0.66 -0.214,1.721 -0.419,2.9c-0.288,1.664 -0.61,3.577 -0.424,4.842c0.081,0.55 0.218,0.98 0.686,0.98c0.028,-0 0.056,-0.022 0.092,-0.041c0.099,-0.052 0.208,-0.131 0.327,-0.231c0.437,-0.367 0.97,-0.988 1.556,-1.78c0.705,-0.954 1.481,-2.15 2.25,-3.467c-0.233,-3.856 -0.161,-9.095 0.945,-11.995c0.594,-1.555 1.513,-2.466 2.704,-2.466c0.569,0 1.006,0.169 1.335,0.455c0.32,0.277 0.543,0.676 0.657,1.187c0.184,0.826 0.075,1.994 -0.27,3.355c-0.721,2.839 -2.456,6.582 -4.26,9.72c0.009,0.122 0.017,0.241 0.025,0.358c0.067,0.914 0.149,1.723 0.234,2.367c0.306,-0.99 0.72,-2.268 1.402,-3.315c0.777,-1.195 1.889,-2.094 3.52,-2.094c0.748,0 1.384,0.405 1.846,1.071c0.347,0.5 0.593,1.155 0.714,1.853c0.858,-0.47 1.71,-0.994 2.44,-1.607c-0.012,-0.208 -0.02,-0.419 -0.024,-0.632c-0.053,-3.139 0.792,-6.824 2.11,-8.754c0.666,-0.976 1.472,-1.522 2.315,-1.522c0.489,0 0.86,0.156 1.135,0.413c0.368,0.345 0.573,0.91 0.563,1.65c-0.029,2.24 -2.071,6.4 -4.786,9.124c-0.059,0.06 -0.12,0.119 -0.182,0.177c0.089,0.916 0.274,1.741 0.578,2.39c0.349,0.745 0.852,1.246 1.594,1.246c0.394,-0 0.744,-0.23 1.073,-0.519c0.409,-0.36 0.775,-0.825 1.101,-1.237c0.359,-0.453 0.683,-0.847 0.954,-1.047c0.217,-0.159 0.429,-0.226 0.615,-0.226c0.188,-0 0.376,0.071 0.524,0.278c0.055,0.078 0.112,0.195 0.155,0.353c0.055,0.201 0.098,0.51 0.144,0.878c0.083,0.662 0.184,1.545 0.474,2.261c0.22,0.545 0.547,1.003 1.167,1.003c0.743,0 1.349,-0.513 1.831,-1.24c0.379,-0.571 0.677,-1.275 0.883,-2.029c-0.273,0.044 -0.549,0.07 -0.824,0.07c-2.775,-0 -3.816,-2.486 -3.436,-4.494c0.266,-1.404 1.221,-2.533 2.669,-2.533c1.909,-0 2.921,1.826 3.012,4.125c0.016,0.421 0.003,0.856 -0.038,1.294c0.479,-0.196 0.912,-0.413 1.264,-0.581c0.49,-0.234 0.874,-0.37 1.077,-0.37c0.233,0 0.455,0.102 0.611,0.379c0.107,0.189 0.187,0.571 0.248,1.055c0.075,0.608 0.15,1.419 0.424,2.077c0.209,0.502 0.547,0.909 1.188,0.909c0.805,0 1.467,-0.504 1.991,-1.227c0.38,-0.523 0.686,-1.161 0.91,-1.846c-0.277,0.047 -0.549,0.072 -0.815,0.072c-2.759,0 -3.868,-2.49 -3.435,-4.494c0.297,-1.38 1.307,-2.514 2.954,-2.514c1.839,-0 2.807,1.797 2.836,4.063c0.005,0.423 -0.021,0.861 -0.077,1.301c1.018,-0.433 2.024,-1.051 2.887,-1.583c0.771,-0.475 1.436,-0.893 1.912,-1.102c0.285,-0.125 0.525,-0.182 0.705,-0.182c0.358,-0 0.664,0.202 0.77,0.717c0.092,0.453 -0.015,1.363 -0.173,2.392c-0.181,1.172 -0.417,2.519 -0.339,3.41c0.012,0.141 0.032,0.268 0.066,0.377c0.015,0.045 0.018,0.093 0.036,0.122c0.038,-0.037 0.093,-0.092 0.131,-0.141c0.111,-0.142 0.226,-0.326 0.347,-0.541c0.504,-0.897 1.083,-2.299 1.698,-3.7c0.754,-1.717 1.571,-3.428 2.359,-4.304c0.455,-0.505 0.932,-0.756 1.371,-0.756c0.322,-0 0.568,0.144 0.738,0.432c0.127,0.217 0.205,0.578 0.2,1.05c-0.01,0.88 -0.272,2.255 -0.522,3.63c-0.235,1.292 -0.464,2.582 -0.417,3.409c0.007,0.123 0.04,0.267 0.064,0.36c0.026,-0.018 0.053,-0.039 0.073,-0.058c0.097,-0.09 0.196,-0.206 0.298,-0.342c0.453,-0.605 0.942,-1.551 1.453,-2.495c0.547,-1.01 1.12,-2.017 1.688,-2.663c0.491,-0.559 1.013,-0.859 1.496,-0.859c0.376,0 0.701,0.217 0.86,0.738c0.172,0.56 0.136,1.683 0.048,2.955c-0.103,1.483 -0.26,3.188 -0.076,4.315c0.04,0.245 0.094,0.459 0.179,0.625c0.055,0.109 0.116,0.197 0.23,0.197c0.159,0 0.302,-0.102 0.452,-0.243c0.235,-0.219 0.459,-0.539 0.682,-0.927c0.746,-1.302 1.425,-3.324 2.054,-5.285c1.022,-3.193 2.997,-6.182 7.697,-6.354l0.063,-0.292c0.027,-0.13 0.156,-0.214 0.286,-0.186l0.292,0.062c0.13,0.028 0.213,0.157 0.185,0.287l-0.051,0.241c0.003,0.003 0.005,0.005 0.008,0.007l0.228,0.045l0.054,-0.254c0.038,-0.18 0.215,-0.294 0.395,-0.256l0.409,0.087c0.179,0.038 0.294,0.215 0.255,0.395l-0.05,0.237l0.217,0.043l0.047,-0.241c0.041,-0.208 0.241,-0.346 0.451,-0.31l3.693,0.635c0.217,0.038 0.36,0.246 0.318,0.462l-0.012,0.058l0.026,0.005c0.109,0.021 0.189,0.108 0.206,0.211l3.258,0.642c0.15,0.029 0.268,0.128 0.328,0.255l1.106,0.132l0.309,0.411l-0.071,0.364l-0.442,0.263l-1.071,-0.301c-0.105,0.097 -0.252,0.144 -0.403,0.115l-3.258,-0.642c-0.055,0.089 -0.161,0.138 -0.27,0.117l-0.026,-0.005l-0.012,0.058c-0.042,0.216 -0.254,0.354 -0.469,0.306l-3.658,-0.812c-0.208,-0.047 -0.34,-0.25 -0.299,-0.458l0.047,-0.241l-0.233,-0.046l-0.054,0.254c-0.038,0.18 -0.215,0.294 -0.395,0.256l-0.409,-0.087c-0.179,-0.039 -0.294,-0.215 -0.256,-0.395l0.051,-0.238l-0.237,-0.047l-0.055,0.259c-0.028,0.13 -0.156,0.214 -0.286,0.186l-0.292,-0.062c-0.13,-0.028 -0.214,-0.157 -0.186,-0.287l0.027,-0.125Zm-55.035,9.238c-0.413,0.213 -0.808,0.417 -1.171,0.618c-0.54,0.298 -1.003,0.584 -1.33,0.884c-0.22,0.201 -0.382,0.388 -0.382,0.613c-0,0.308 0.182,0.56 0.396,0.716c0.126,0.092 0.264,0.157 0.387,0.157c0.354,-0 0.693,-0.281 1.011,-0.653c0.514,-0.601 0.928,-1.481 1.089,-2.335Zm-24.691,-0.637c1.165,-1.31 2.083,-3.027 2.505,-4.548c0.207,-0.746 0.296,-1.442 0.216,-2.009c-0.048,-0.338 -0.152,-0.625 -0.354,-0.821c-0.191,-0.186 -0.467,-0.274 -0.826,-0.274c-0.344,-0 -0.641,0.225 -0.909,0.555c-0.528,0.65 -0.904,1.7 -1.073,2.861c-0.205,1.397 -0.114,2.979 0.441,4.236Zm40.675,-1.348c0.079,-0.549 0.11,-1.102 0.089,-1.63c-0.035,-0.878 -0.209,-1.686 -0.569,-2.271c-0.301,-0.489 -0.741,-0.804 -1.35,-0.804c-0.901,0 -1.429,0.77 -1.595,1.644c-0.267,1.41 0.413,3.196 2.362,3.196c0.357,0 0.715,-0.051 1.063,-0.135Zm9.154,-1.154c0.105,-0.568 0.156,-1.142 0.149,-1.688c-0.011,-0.856 -0.161,-1.643 -0.494,-2.213c-0.273,-0.468 -0.68,-0.77 -1.248,-0.77c-1.064,-0 -1.693,0.759 -1.885,1.65c-0.303,1.402 0.437,3.171 2.366,3.171c0.361,-0 0.734,-0.055 1.112,-0.15Zm-31.899,-0.953c1.432,-2.682 2.713,-5.61 3.301,-7.923c0.293,-1.156 0.419,-2.146 0.262,-2.848c-0.056,-0.254 -0.147,-0.462 -0.306,-0.6c-0.15,-0.13 -0.357,-0.186 -0.618,-0.186c-0.793,-0 -1.287,0.727 -1.682,1.762c-0.905,2.372 -1.069,6.37 -0.957,9.795Zm11.35,-0.354c1.907,-2.118 3.396,-4.911 3.822,-6.89c0.111,-0.515 0.15,-0.968 0.087,-1.326c-0.031,-0.179 -0.083,-0.329 -0.188,-0.427c-0.093,-0.087 -0.224,-0.118 -0.388,-0.118c-0.328,-0 -0.629,0.173 -0.914,0.445c-0.359,0.342 -0.683,0.835 -0.973,1.426c-0.884,1.803 -1.427,4.484 -1.446,6.89Zm-33.454,-7.931c-0.814,0.016 -1.566,0.039 -2.255,0.069c-0.154,1.219 -0.236,2.524 -0.243,3.828c-0.006,1.011 0.033,2.022 0.119,2.993c0.949,-2.288 1.797,-4.725 2.379,-6.89Zm13.437,6.119c0.022,-0.32 0.014,-0.619 -0.029,-0.89c-0.057,-0.354 -0.171,-0.653 -0.381,-0.858c-0.195,-0.19 -0.473,-0.283 -0.832,-0.283c-0.45,-0 -0.712,0.329 -0.796,0.706c-0.141,0.626 0.183,1.42 1.066,1.42c0.31,0 0.637,-0.038 0.972,-0.095Zm-36.327,-4.641c0.088,-0.934 0.103,-1.776 -0.011,-2.45c-0.125,-0.732 -0.398,-1.242 -1.069,-1.242c-0.618,0 -1.001,0.632 -1.17,1.319c-0.271,1.098 0.046,2.516 1.482,2.516c0.276,0 0.532,-0.05 0.768,-0.143Zm23.116,-2.357c0.08,-0.327 0.152,-0.646 0.217,-0.955c0.332,-1.585 0.471,-2.896 0.28,-3.693c-0.063,-0.264 -0.13,-0.468 -0.343,-0.468c-0.295,0 -0.554,0.161 -0.795,0.415c-0.318,0.334 -0.594,0.822 -0.839,1.417c-0.376,0.914 -0.668,2.068 -0.875,3.351c0.72,-0.029 1.505,-0.053 2.355,-0.067Z" style="fill:rgb(131,133,136);"/>
        </g>
        <g id="Drill">
            <g id="Jack">
                <path d="M576.107,277.901c0.143,0.248 0.143,0.554 0,0.802c-1.838,3.183 -14.056,24.345 -15.894,27.528c-0.143,0.248 -0.407,0.401 -0.693,0.401c-3.676,-0 -28.112,0.001 -31.788,0.001c-0.286,0 -0.551,-0.152 -0.694,-0.4c-1.838,-3.183 -14.056,-24.344 -15.894,-27.527c-0.143,-0.248 -0.143,-0.554 0,-0.802c1.838,-3.183 14.056,-24.345 15.894,-27.528c0.143,-0.248 0.408,-0.401 0.694,-0.401c3.676,-0 28.112,-0.001 31.788,-0.001c0.286,-0 0.55,0.152 0.694,0.4c1.837,3.183 14.055,24.344 15.893,27.527Z" style="fill:rgb(254,255,254);stroke:rgb(17,18,24);stroke-width:4.17px;"/>
                <ellipse cx="543.626" cy="278.303" rx="17.08" ry="17.079" style="fill:rgb(131,133,136);"/>
                <path d="M543.626,258.492c10.935,-0 19.812,8.877 19.812,19.811c0,10.935 -8.877,19.812 -19.812,19.812c-10.935,0 -19.813,-8.877 -19.813,-19.812c0,-10.934 8.878,-19.811 19.813,-19.811Zm-0,2.733c-9.427,-0 -17.08,7.652 -17.08,17.078c-0,9.427 7.653,17.079 17.08,17.079c9.427,0 17.08,-7.652 17.08,-17.079c-0,-9.426 -7.653,-17.078 -17.08,-17.078Z" style="fill:rgb(131,133,136);"/>
            </g>
            <g id="Jack1" serif:id="Jack">
                <path d="M576.107,379.901c0.143,0.248 0.143,0.554 0,0.802c-1.838,3.183 -14.056,24.345 -15.894,27.528c-0.143,0.248 -0.407,0.401 -0.693,0.401c-3.676,-0 -28.112,0.001 -31.788,0.001c-0.286,0 -0.551,-0.152 -0.694,-0.4c-1.838,-3.183 -14.056,-24.344 -15.894,-27.527c-0.143,-0.248 -0.143,-0.554 0,-0.802c1.838,-3.183 14.056,-24.345 15.894,-27.528c0.143,-0.248 0.408,-0.401 0.694,-0.401c3.676,-0 28.112,-0.001 31.788,-0.001c0.286,-0 0.55,0.152 0.694,0.4c1.837,3.183 14.055,24.344 15.893,27.527Z" style="fill:rgb(254,255,254);stroke:rgb(17,18,24);stroke-width:4.17px;"/>
                <ellipse cx="543.626" cy="380.303" rx="17.08" ry="17.079" style="fill:rgb(131,133,136);"/>
                <path d="M543.626,360.492c10.935,-0 19.812,8.877 19.812,19.811c0,10.935 -8.877,19.812 -19.812,19.812c-10.935,0 -19.813,-8.877 -19.813,-19.812c0,-10.934 8.878,-19.811 19.813,-19.811Zm-0,2.733c-9.427,-0 -17.08,7.652 -17.08,17.078c-0,9.427 7.653,17.079 17.08,17.079c9.427,0 17.08,-7.652 17.08,-17.079c-0,-9.426 -7.653,-17.078 -17.08,-17.078Z" style="fill:rgb(131,133,136);"/>
            </g>
            <g id="Jack2" serif:id="Jack">
                <path d="M729.107,277.901c0.143,0.248 0.143,0.554 0,0.802c-1.838,3.183 -14.056,24.345 -15.894,27.528c-0.143,0.248 -0.407,0.401 -0.693,0.401c-3.676,-0 -28.112,0.001 -31.788,0.001c-0.286,0 -0.551,-0.152 -0.694,-0.4c-1.838,-3.183 -14.056,-24.344 -15.894,-27.527c-0.143,-0.248 -0.143,-0.554 0,-0.802c1.838,-3.183 14.056,-24.345 15.894,-27.528c0.143,-0.248 0.408,-0.401 0.694,-0.401c3.676,-0 28.112,-0.001 31.788,-0.001c0.286,-0 0.55,0.152 0.694,0.4c1.837,3.183 14.055,24.344 15.893,27.527Z" style="fill:rgb(254,255,254);stroke:rgb(17,18,24);stroke-width:4.17px;"/>
                <ellipse cx="696.626" cy="278.303" rx="17.08" ry="17.079" style="fill:rgb(131,133,136);"/>
                <path d="M696.626,258.492c10.935,-0 19.812,8.877 19.812,19.811c0,10.935 -8.877,19.812 -19.812,19.812c-10.935,0 -19.813,-8.877 -19.813,-19.812c0,-10.934 8.878,-19.811 19.813,-19.811Zm-0,2.733c-9.427,-0 -17.08,7.652 -17.08,17.078c-0,9.427 7.653,17.079 17.08,17.079c9.427,0 17.08,-7.652 17.08,-17.079c-0,-9.426 -7.653,-17.078 -17.08,-17.078Z" style="fill:rgb(131,133,136);"/>
            </g>
            <g id="Jack3" serif:id="Jack">
                <path d="M729.107,379.901c0.143,0.248 0.143,0.554 0,0.802c-1.838,3.183 -14.056,24.345 -15.894,27.528c-0.143,0.248 -0.407,0.401 -0.693,0.401c-3.676,-0 -28.112,0.001 -31.788,0.001c-0.286,0 -0.551,-0.152 -0.694,-0.4c-1.838,-3.183 -14.056,-24.344 -15.894,-27.527c-0.143,-0.248 -0.143,-0.554 0,-0.802c1.838,-3.183 14.056,-24.345 15.894,-27.528c0.143,-0.248 0.408,-0.401 0.694,-0.401c3.676,-0 28.112,-0.001 31.788,-0.001c0.286,-0 0.55,0.152 0.694,0.4c1.837,3.183 14.055,24.344 15.893,27.527Z" style="fill:rgb(254,255,254);stroke:rgb(17,18,24);stroke-width:4.17px;"/>
                <ellipse cx="696.626" cy="380.303" rx="17.08" ry="17.079" style="fill:rgb(131,133,136);"/>
                <path d="M696.626,360.492c10.935,-0 19.812,8.877 19.812,19.811c0,10.935 -8.877,19.812 -19.812,19.812c-10.935,0 -19.813,-8.877 -19.813,-19.812c0,-10.934 8.878,-19.811 19.813,-19.811Zm-0,2.733c-9.427,-0 -17.08,7.652 -17.08,17.078c-0,9.427 7.653,17.079 17.08,17.079c9.427,0 17.08,-7.652 17.08,-17.079c-0,-9.426 -7.653,-17.078 -17.08,-17.078Z" style="fill:rgb(131,133,136);"/>
            </g>
            <g id="Jack4" serif:id="Jack">
                <path d="M820.107,277.901c0.143,0.248 0.143,0.554 0,0.802c-1.838,3.183 -14.056,24.345 -15.894,27.528c-0.143,0.248 -0.407,0.401 -0.693,0.401c-3.676,-0 -28.112,0.001 -31.788,0.001c-0.286,0 -0.551,-0.152 -0.694,-0.4c-1.838,-3.183 -14.056,-24.344 -15.894,-27.527c-0.143,-0.248 -0.143,-0.554 0,-0.802c1.838,-3.183 14.056,-24.345 15.894,-27.528c0.143,-0.248 0.408,-0.401 0.694,-0.401c3.676,-0 28.112,-0.001 31.788,-0.001c0.286,-0 0.55,0.152 0.694,0.4c1.837,3.183 14.055,24.344 15.893,27.527Z" style="fill:rgb(254,255,254);stroke:rgb(17,18,24);stroke-width:4.17px;"/>
                <ellipse cx="787.626" cy="278.303" rx="17.08" ry="17.079" style="fill:rgb(131,133,136);"/>
                <path d="M787.626,258.492c10.935,-0 19.812,8.877 19.812,19.811c0,10.935 -8.877,19.812 -19.812,19.812c-10.935,0 -19.813,-8.877 -19.813,-19.812c0,-10.934 8.878,-19.811 19.813,-19.811Zm-0,2.733c-9.427,-0 -17.08,7.652 -17.08,17.078c-0,9.427 7.653,17.079 17.08,17.079c9.427,0 17.08,-7.652 17.08,-17.079c-0,-9.426 -7.653,-17.078 -17.08,-17.078Z" style="fill:rgb(131,133,136);"/>
            </g>
            <g id="Jack5" serif:id="Jack">
                <path d="M820.107,379.901c0.143,0.248 0.143,0.554 0,0.802c-1.838,3.183 -14.056,24.345 -15.894,27.528c-0.143,0.248 -0.407,0.401 -0.693,0.401c-3.676,-0 -28.112,0.001 -31.788,0.001c-0.286,0 -0.551,-0.152 -0.694,-0.4c-1.838,-3.183 -14.056,-24.344 -15.894,-27.527c-0.143,-0.248 -0.143,-0.554 0,-0.802c1.838,-3.183 14.056,-24.345 15.894,-27.528c0.143,-0.248 0.408,-0.401 0.694,-0.401c3.676,-0 28.112,-0.001 31.788,-0.001c0.286,-0 0.55,0.152 0.694,0.4c1.837,3.183 14.055,24.344 15.893,27.527Z" style="fill:rgb(254,255,254);stroke:rgb(17,18,24);stroke-width:4.17px;"/>
                <ellipse cx="787.626" cy="380.303" rx="17.08" ry="17.079" style="fill:rgb(131,133,136);"/>
                <path d="M787.626,360.492c10.935,-0 19.812,8.877 19.812,19.811c0,10.935 -8.877,19.812 -19.812,19.812c-10.935,0 -19.813,-8.877 -19.813,-19.812c0,-10.934 8.878,-19.811 19.813,-19.811Zm-0,2.733c-9.427,-0 -17.08,7.652 -17.08,17.078c-0,9.427 7.653,17.079 17.08,17.079c9.427,0 17.08,-7.652 17.08,-17.079c-0,-9.426 -7.653,-17.078 -17.08,-17.078Z" style="fill:rgb(131,133,136);"/>
            </g>
            <g id="Jack6" serif:id="Jack">
                <path d="M917.107,277.901c0.143,0.248 0.143,0.554 0,0.802c-1.838,3.183 -14.056,24.345 -15.894,27.528c-0.143,0.248 -0.407,0.401 -0.693,0.401c-3.676,-0 -28.112,0.001 -31.788,0.001c-0.286,0 -0.551,-0.152 -0.694,-0.4c-1.838,-3.183 -14.056,-24.344 -15.894,-27.527c-0.143,-0.248 -0.143,-0.554 0,-0.802c1.838,-3.183 14.056,-24.345 15.894,-27.528c0.143,-0.248 0.408,-0.401 0.694,-0.401c3.676,-0 28.112,-0.001 31.788,-0.001c0.286,-0 0.55,0.152 0.694,0.4c1.837,3.183 14.055,24.344 15.893,27.527Z" style="fill:rgb(254,255,254);stroke:rgb(17,18,24);stroke-width:4.17px;"/>
                <ellipse cx="884.626" cy="278.303" rx="17.08" ry="17.079" style="fill:rgb(131,133,136);"/>
                <path d="M884.626,258.492c10.935,-0 19.812,8.877 19.812,19.811c0,10.935 -8.877,19.812 -19.812,19.812c-10.935,0 -19.813,-8.877 -19.813,-19.812c0,-10.934 8.878,-19.811 19.813,-19.811Zm-0,2.733c-9.427,-0 -17.08,7.652 -17.08,17.078c-0,9.427 7.653,17.079 17.08,17.079c9.427,0 17.08,-7.652 17.08,-17.079c-0,-9.426 -7.653,-17.078 -17.08,-17.078Z" style="fill:rgb(131,133,136);"/>
            </g>
            <g id="Jack7" serif:id="Jack">
                <path d="M917.107,379.901c0.143,0.248 0.143,0.554 0,0.802c-1.838,3.183 -14.056,24.345 -15.894,27.528c-0.143,0.248 -0.407,0.401 -0.693,0.401c-3.676,-0 -28.112,0.001 -31.788,0.001c-0.286,0 -0.551,-0.152 -0.694,-0.4c-1.838,-3.183 -14.056,-24.344 -15.894,-27.527c-0.143,-0.248 -0.143,-0.554 0,-0.802c1.838,-3.183 14.056,-24.345 15.894,-27.528c0.143,-0.248 0.408,-0.401 0.694,-0.401c3.676,-0 28.112,-0.001 31.788,-0.001c0.286,-0 0.55,0.152 0.694,0.4c1.837,3.183 14.055,24.344 15.893,27.527Z" style="fill:rgb(254,255,254);stroke:rgb(17,18,24);stroke-width:4.17px;"/>
                <ellipse cx="884.626" cy="380.303" rx="17.08" ry="17.079" style="fill:rgb(131,133,136);"/>
                <path d="M884.626,360.492c10.935,-0 19.812,8.877 19.812,19.811c0,10.935 -8.877,19.812 -19.812,19.812c-10.935,0 -19.813,-8.877 -19.813,-19.812c0,-10.934 8.878,-19.811 19.813,-19.811Zm-0,2.733c-9.427,-0 -17.08,7.652 -17.08,17.078c-0,9.427 7.653,17.079 17.08,17.079c9.427,0 17.08,-7.652 17.08,-17.079c-0,-9.426 -7.653,-17.078 -17.08,-17.078Z" style="fill:rgb(131,133,136);"/>
            </g>
            <g id="Jack8" serif:id="Jack">
                <path d="M1007.11,277.901c0.143,0.248 0.143,0.554 0,0.802c-1.838,3.183 -14.056,24.345 -15.894,27.528c-0.143,0.248 -0.407,0.401 -0.693,0.401c-3.676,-0 -28.112,0.001 -31.788,0.001c-0.286,0 -0.551,-0.152 -0.694,-0.4c-1.838,-3.183 -14.056,-24.344 -15.894,-27.527c-0.143,-0.248 -0.143,-0.554 0,-0.802c1.838,-3.183 14.056,-24.345 15.894,-27.528c0.143,-0.248 0.408,-0.401 0.694,-0.401c3.676,-0 28.112,-0.001 31.788,-0.001c0.286,-0 0.55,0.152 0.694,0.4c1.837,3.183 14.055,24.344 15.893,27.527Z" style="fill:rgb(254,255,254);stroke:rgb(17,18,24);stroke-width:4.17px;"/>
                <ellipse cx="974.626" cy="278.303" rx="17.08" ry="17.079" style="fill:rgb(131,133,136);"/>
                <path d="M974.626,258.492c10.935,-0 19.812,8.877 19.812,19.811c0,10.935 -8.877,19.812 -19.812,19.812c-10.935,0 -19.813,-8.877 -19.813,-19.812c0,-10.934 8.878,-19.811 19.813,-19.811Zm-0,2.733c-9.427,-0 -17.08,7.652 -17.08,17.078c-0,9.427 7.653,17.079 17.08,17.079c9.427,0 17.08,-7.652 17.08,-17.079c-0,-9.426 -7.653,-17.078 -17.08,-17.078Z" style="fill:rgb(131,133,136);"/>
            </g>
            <g id="Jack9" serif:id="Jack">
                <path d="M1007.11,379.901c0.143,0.248 0.143,0.554 0,0.802c-1.838,3.183 -14.056,24.345 -15.894,27.528c-0.143,0.248 -0.407,0.401 -0.693,0.401c-3.676,-0 -28.112,0.001 -31.788,0.001c-0.286,0 -0.551,-0.152 -0.694,-0.4c-1.838,-3.183 -14.056,-24.344 -15.894,-27.527c-0.143,-0.248 -0.143,-0.554 0,-0.802c1.838,-3.183 14.056,-24.345 15.894,-27.528c0.143,-0.248 0.408,-0.401 0.694,-0.401c3.676,-0 28.112,-0.001 31.788,-0.001c0.286,-0 0.55,0.152 0.694,0.4c1.837,3.183 14.055,24.344 15.893,27.527Z" style="fill:rgb(254,255,254);stroke:rgb(17,18,24);stroke-width:4.17px;"/>
                <ellipse cx="974.626" cy="380.303" rx="17.08" ry="17.079" style="fill:rgb(131,133,136);"/>
                <path d="M974.626,360.492c10.935,-0 19.812,8.877 19.812,19.811c0,10.935 -8.877,19.812 -19.812,19.812c-10.935,0 -19.813,-8.877 -19.813,-19.812c0,-10.934 8.878,-19.811 19.813,-19.811Zm-0,2.733c-9.427,-0 -17.08,7.652 -17.08,17.078c-0,9.427 7.653,17.079 17.08,17.079c9.427,0 17.08,-7.652 17.08,-17.079c-0,-9.426 -7.653,-17.078 -17.08,-17.078Z" style="fill:rgb(131,133,136);"/>
            </g>
        </g>
        <g id="LEDs">
            <circle cx="617.502" cy="277.96" r="17.286" style="fill:rgb(245,191,197);"/>
            <circle cx="617.502" cy="379.697" r="17.286" style="fill:rgb(180,227,241);"/>
            <path d="M631.058,277.96c-7.11,4.071 -14.228,8.18 -21.308,12.303c0.03,-8.193 0.03,-16.412 -0,-24.605c7.08,4.123 14.198,8.232 21.308,12.302Z" style="fill:rgb(216,78,90);"/>
            <circle cx="617.502" cy="379.574" r="17.286" style="fill:rgb(245,191,197);"/>
            <path d="M631.058,379.574c-7.11,4.07 -14.228,8.18 -21.308,12.303c0.03,-8.193 0.03,-16.412 -0,-24.605c7.08,4.122 14.198,8.232 21.308,12.302Z" style="fill:rgb(216,78,90);"/>
            <circle cx="543.626" cy="277.96" r="17.286" style="fill:rgb(125,98,170);"/>
            <circle cx="696.42" cy="277.96" r="17.286" style="fill:rgb(125,98,170);"/>
            <circle cx="787.832" cy="277.96" r="17.286" style="fill:rgb(125,98,170);"/>
            <circle cx="884.832" cy="277.96" r="17.286" style="fill:rgb(125,98,170);"/>
            <circle cx="974.42" cy="277.96" r="17.286" style="fill:rgb(125,98,170);"/>
            <circle cx="696.42" cy="380.511" r="17.286" style="fill:rgb(125,98,170);"/>
            <circle cx="787.832" cy="380.511" r="17.286" style="fill:rgb(125,98,170);"/>
            <circle cx="884.832" cy="380.511" r="17.286" style="fill:rgb(125,98,170);"/>
            <circle cx="974.42" cy="380.511" r="17.286" style="fill:rgb(125,98,170);"/>
        </g>
    </g>
    <g id="Right-in" serif:id="Right in">
        <path d="M355.348,265.874l5.339,-0.002l0.142,-4.522l20.66,-0.007l-0.142,4.523l5.379,-0.002l0.162,-5.149l7.602,-0.002c0.484,-1.68 2.073,-2.924 3.918,-2.925l69.677,-0.024c2.178,-0 3.891,1.734 3.824,3.87l-0.06,1.925l2.711,-0.001l-0.195,6.208l41.794,-0.014l-0.025,0.781l5.184,-0.002c1.216,0 2.173,0.968 2.136,2.162l0.017,-0.565l14.75,-0.82l5.405,4.368l-0.156,5.234l-5.543,4.346l-14.822,-1.453l-0.009,0.276c-0.038,1.193 -1.055,2.162 -2.272,2.163l-5.183,0.001l-0.016,0.508l-41.794,0.014l-0.195,6.193l-2.711,0.001l-0.063,1.988c-0.067,2.136 -1.889,3.871 -4.067,3.872l-69.677,0.023c-1.775,0.001 -3.241,-1.151 -3.687,-2.733l-7.655,0.002l0.166,-5.312l-5.378,0.002l-0.144,4.578l-20.66,0.007l0.144,-4.578l-5.339,0.001l0.754,-24.002l-0.898,28.581l-19.527,0.007c-0.631,-0 -1.128,-0.503 -1.109,-1.123l0.366,-31.791c0.019,-0.619 0.548,-1.123 1.179,-1.123l20.16,-0.007l-0.142,4.523Zm-21.304,0.007l-0.15,24.936l0.15,-24.936Z" style="fill:rgb(125,97,170);"/>
        <path d="M330.845,278.221l0.074,-12.358l0.068,0l0.039,-3.418c0,-0.021 0.001,-0.041 0.001,-0.062c0.072,-2.274 1.984,-4.149 4.302,-4.15l20.16,-0.007c0.846,0 1.656,0.343 2.245,0.95c0.163,0.168 0.305,0.353 0.425,0.55c0.549,-0.902 1.541,-1.501 2.669,-1.501l20.66,-0.007c0.846,-0.001 1.656,0.342 2.245,0.95c0.1,0.103 0.193,0.212 0.277,0.327c0.476,-1.122 1.587,-1.904 2.877,-1.905c-0,0 5.725,-0.002 5.724,-0.001c1.316,-1.766 3.436,-2.925 5.796,-2.926l69.677,-0.024c3.532,-0.001 6.37,2.522 6.873,5.82c0.699,0.089 1.351,0.413 1.847,0.924c0.588,0.608 0.906,1.428 0.879,2.273l-0.094,2.984l38.569,-0.013c0.764,-0.001 1.499,0.279 2.068,0.78l3.091,-0.001c1.466,-0 2.772,0.575 3.717,1.506l13.013,-0.724c0.774,-0.043 1.536,0.203 2.138,0.69l5.405,4.367c0.76,0.614 1.188,1.548 1.159,2.524l-0.155,5.234c-0.028,0.927 -0.466,1.793 -1.195,2.366l-5.544,4.347c-0.632,0.496 -1.432,0.729 -2.233,0.651l-12.439,-1.22c-0.985,1.338 -2.577,2.219 -4.358,2.22l-3.491,0.001c-0.492,0.321 -1.079,0.508 -1.708,0.508c-0,0 -38.767,0.013 -38.767,0.013l-0.1,3.167c-0.05,1.606 -1.306,2.898 -2.883,3.018c-0.606,3.308 -3.572,5.869 -7.08,5.87l-69.677,0.023c-2.299,0.001 -4.304,-1.075 -5.561,-2.733l-5.781,0.002c-0.846,0.001 -1.656,-0.342 -2.245,-0.95c-0.279,-0.287 -0.497,-0.623 -0.647,-0.986c-0.572,0.734 -1.465,1.204 -2.464,1.204l-20.66,0.007c-0.846,0 -1.656,-0.342 -2.245,-0.95c-0.163,-0.168 -0.305,-0.352 -0.425,-0.549c-0.549,0.901 -1.541,1.5 -2.669,1.501l-19.527,0.007c-2.415,0 -4.289,-1.943 -4.234,-4.303l0.184,-15.996Zm192.251,8.983c0.349,-0 0.686,-0.058 1,-0.164l-0.773,-0.076l-0.227,0.24Zm-168.531,3.605l5.339,-0.001l-0.144,4.578l20.66,-0.007l0.144,-4.578l5.378,-0.002l-0.166,5.312l7.655,-0.002c0.446,1.582 1.912,2.734 3.687,2.733l69.677,-0.023c2.178,-0.001 4,-1.736 4.067,-3.872l0.063,-1.988l2.711,-0.001l0.195,-6.193l41.794,-0.014l0.016,-0.508l5.183,-0.001c0.006,-0 0.011,-0 0.016,-0c0.004,0.004 0.008,0.008 0.012,0.011c0.588,0.608 1.398,0.951 2.244,0.951l-1.194,-1.234c0.059,-0.032 0.117,-0.066 0.172,-0.103l1.031,1.061l2.935,-2.837l0.014,0.001l-2.685,2.825c1.495,-0.125 2.699,-1.305 2.846,-2.809l11.712,1.148l5.543,-4.346l0.156,-5.234l-5.405,-4.368l-14.75,0.82l-0.017,0.565c0.037,-1.194 -0.92,-2.162 -2.136,-2.162l-5.184,0.002l0.025,-0.781l-41.794,0.014l0.195,-6.208l-2.711,0.001l0.06,-1.925c0.067,-2.136 -1.646,-3.87 -3.824,-3.87l-69.677,0.024c-1.845,0.001 -3.434,1.245 -3.918,2.925l-7.602,0.002l-0.162,5.149l-5.379,0.002l0.142,-4.523l-20.66,0.007l-0.142,4.522l-5.339,0.002l0.142,-4.523l-20.16,0.007c-0.631,0 -1.16,0.504 -1.179,1.123l-0.366,31.791c-0.019,0.62 0.478,1.123 1.109,1.123l19.527,-0.007l0.144,-4.579Z" style="fill:white;"/>
        <rect x="516.01" y="270.533" width="3.964" height="15.71" style="fill:rgb(35,31,32);"/>
        <rect x="126.263" y="268.336" width="211.005" height="19.934" style="fill:rgb(125,97,170);"/>
    </g>
</svg>
