<?xml version="1.0" encoding="UTF-8" standalone="no"?>
<!DOCTYPE svg PUBLIC "-//W3C//DTD SVG 1.1//EN" "http://www.w3.org/Graphics/SVG/1.1/DTD/svg11.dtd">
<svg width="100%" height="100%" viewBox="0 0 1517 656" version="1.1" xmlns="http://www.w3.org/2000/svg" xmlns:xlink="http://www.w3.org/1999/xlink" xml:space="preserve" xmlns:serif="http://www.serif.com/" style="fill-rule:evenodd;clip-rule:evenodd;stroke-linecap:round;stroke-linejoin:round;stroke-miterlimit:1.5;">
    <rect id="two-channels" x="0" y="0" width="1516.46" height="655.24" style="fill:white;"/>
    <g id="Hydrogen">
        <g>
            <path id="EdgeCuts" d="M959.661,479.169l-402.093,0l-0,-22.933c-0,-6.961 -5.652,-12.613 -12.614,-12.613c-6.961,0 -12.613,5.652 -12.613,12.613l0,22.933l-44.719,0l-0,-303.098l44.643,-0l-0,22.933c-0,7.003 5.686,12.689 12.689,12.689c7.004,0 12.69,-5.686 12.69,-12.689l0,-22.933c0,-0 401.787,-0 401.787,-0l0,22.933c0,7.003 5.687,12.689 12.69,12.689c7.004,0 12.69,-5.686 12.69,-12.689l-0,-22.933l44.031,-0l0,303.098l-43.955,0l0,-22.933c0,-6.961 -5.652,-12.613 -12.613,-12.613c-6.961,0 -12.613,5.652 -12.613,12.613l-0,22.933Z" style="fill:none;stroke:rgb(12,12,12);stroke-width:4.17px;"/>
            <g id="Gold">
                <circle cx="544.073" cy="277.137" r="36.311" style="fill:rgb(203,202,190);"/>
                <circle cx="544.073" cy="378.751" r="36.311" style="fill:rgb(203,202,190);"/>
                <path d="M830.753,304.366c21.588,-0 29.293,10.728 40.503,22.83c-8.995,12.717 -21.028,20.499 -40.248,20.499c-19.934,-0 -28.558,-12.281 -28.558,-20.238c-0,-7.957 8.369,-23.091 28.303,-23.091Z" style="fill:rgb(179,179,179);"/>
            </g>
            <g>
                <circle cx="544.073" cy="277.137" r="36.311" style="fill:rgb(203,202,190);"/>
                <circle cx="544.073" cy="378.751" r="36.311" style="fill:rgb(203,202,190);"/>
                <path d="M830.753,304.366c21.588,-0 29.293,10.728 40.503,22.83c-8.995,12.717 -21.028,20.499 -40.248,20.499c-19.934,-0 -28.558,-12.281 -28.558,-20.238c-0,-7.957 8.369,-23.091 28.303,-23.091Z" style="fill:rgb(179,179,179);"/>
            </g>
            <g>
                <circle cx="544.073" cy="277.137" r="36.311" style="fill:rgb(203,202,190);"/>
                <circle cx="544.073" cy="378.751" r="36.311" style="fill:rgb(203,202,190);"/>
                <path d="M830.753,304.366c21.588,-0 29.293,10.728 40.503,22.83c-8.995,12.717 -21.028,20.499 -40.248,20.499c-19.934,-0 -28.558,-12.281 -28.558,-20.238c-0,-7.957 8.369,-23.091 28.303,-23.091Z" style="fill:rgb(179,179,179);"/>
            </g>
        </g>
        <g id="SIlk">
            <path d="M869.197,329.95l1.451,6.445c0.105,0.465 -0.04,0.952 -0.383,1.284c-0.342,0.332 -0.833,0.462 -1.295,0.343l-5.903,-1.52c2.2,-1.962 4.232,-4.154 6.13,-6.552Z" style="fill:rgb(131,133,136);"/>
            <path d="M816.779,345.136c3.882,1.582 8.606,2.559 14.229,2.559c4.267,-0 8.179,-0.384 11.785,-1.12c0.007,0.103 0.01,0.205 0.01,0.308c0,1.532 -4.112,3.991 -5.644,3.991l-16.696,0c-1.531,0 -3.684,-3.768 -3.684,-5.3l-0,-0.438Z" style="fill:rgb(131,133,136);"/>
            <path d="M863.315,318.606l6.215,-1.22c0.367,-0.072 0.746,0.052 0.999,0.328c0.253,0.276 0.345,0.664 0.242,1.024l-1.734,6.038c-1.95,-2.14 -3.824,-4.215 -5.722,-6.17Z" style="fill:rgb(131,133,136);"/>
            <path d="M806.022,333.632l0.052,0.051c4.555,4.438 12.59,10.092 24.907,10.092c11.397,-0 19.53,-2.752 26.38,-6.656c0.032,-0.019 0.052,-0.053 0.052,-0.091l0,-0.06c0,-0.037 -0.019,-0.071 -0.05,-0.09c-0.032,-0.018 -0.071,-0.019 -0.103,-0.002c-6.939,3.682 -15.434,5.733 -26.252,5.733c-11.512,0 -20.519,-4.93 -24.789,-9.075l-0.051,-0.051l-0.058,-0.056c-0.286,-0.282 -0.54,-0.549 -0.764,-0.804c-0.029,-0.032 -0.075,-0.044 -0.115,-0.028c-0.041,0.015 -0.068,0.054 -0.068,0.097l0,0.079c0,0.029 0.012,0.057 0.034,0.077c0.261,0.242 0.536,0.502 0.825,0.784Zm0.234,-1.768c0.019,-0.03 0.041,-0.058 0.053,-0.055c-0.009,-0.019 -0.022,-0.036 -0.041,-0.047l0.036,0.022c-0.007,-0.013 -0.017,-0.025 -0.03,-0.035c0.117,0.084 0.239,0.167 0.366,0.248c4.285,2.706 12.71,5.6 24.364,5.6c10.237,0 18.721,-1.569 25.551,-3.808c0.032,-0.011 0.067,-0.005 0.094,0.014c0.027,0.02 0.043,0.051 0.043,0.085l-0,0.069c-0,0.044 -0.028,0.083 -0.069,0.098c-6.88,2.486 -14.933,4.571 -25.615,4.571c-12.267,-0 -19.969,-3.605 -24.479,-6.453c-0.126,-0.08 -0.25,-0.158 -0.372,-0.235c0.013,0.008 0.028,0.014 0.044,0.015l-0.003,-0.002c-0.029,-0.006 -0.09,-0.029 -0.09,-0.102c0,-0.002 0,-0.015 0,-0.015c0,0 0.105,0.104 0.105,0.104l0.004,-0.008c0.006,-0.012 0.019,-0.034 0.033,-0.057l-0.037,-0.023l-0,-0.016c0.014,0.01 0.028,0.02 0.043,0.03Zm0.941,-11.325l0.004,0l0.008,-0c0.019,-0.001 0.036,-0.008 0.051,-0.018c4.366,-2.983 12.432,-5.956 23.515,-5.956c9.655,0 16.609,1.112 22.29,3.064c0.004,0.004 0.007,0.008 0.011,0.012c0.011,0.01 0.042,0.036 0.092,0.027c0.012,-0.003 0.043,-0.015 0.058,-0.026c0.017,-0.012 0.028,-0.026 0.033,-0.037c0.019,-0.034 0.016,-0.066 0.004,-0.093c-0.008,-0.019 -0.023,-0.04 -0.054,-0.054l-0.005,-0.002c-5.716,-2.209 -12.65,-4.021 -22.451,-4.021c-11.764,0 -19.102,3.694 -23.612,6.906l0.002,0.007l-0,0.001l0.054,0.177l-0.1,-0.1l0,0.009c0,0.083 0.08,0.101 0.1,0.104Zm-1.931,-0.713l0.001,0.001l0.007,0c0.033,-0.002 0.063,-0.019 0.081,-0.047c3.635,-5.573 12.118,-10.329 25.398,-10.329c11.414,0 18.867,2.513 25.035,6.352c0.016,0.01 0.035,0.015 0.055,0.015l0.21,0c0.045,0 0.086,-0.03 0.099,-0.073c0.014,-0.044 -0.003,-0.092 -0.041,-0.117c-6.952,-4.703 -13.995,-7.118 -25.413,-7.485c-14.352,-0.461 -21.63,5.48 -25.518,11.523l0.087,0.16l-0.001,0c-0.01,-0.013 -0.103,-0.127 -0.103,-0.104c0,0.089 0.093,0.103 0.103,0.104Z" style="fill:rgb(131,133,136);"/>
            <path d="M708.286,198.91l2.884,0l-1.333,6.248l4.369,-0l1.332,-6.248l2.884,0l-3.255,15.291l-2.883,-0l1.332,-6.291l-4.369,-0l-1.332,6.291l-2.862,-0l3.233,-15.291Z" style="fill:rgb(131,133,136);fill-rule:nonzero;"/>
            <path d="M723.402,209.657c-0.029,0.102 -0.051,0.212 -0.065,0.328c-0.015,0.117 -0.022,0.233 -0.022,0.35c-0,0.553 0.16,0.972 0.48,1.256c0.321,0.284 0.758,0.426 1.311,0.426c0.786,-0 1.391,-0.255 1.813,-0.765c0.422,-0.51 0.735,-1.245 0.939,-2.206l1.202,-5.68l2.752,0l-2.862,13.5c-0.101,0.495 -0.342,0.903 -0.72,1.223c-0.379,0.321 -0.816,0.481 -1.311,0.481l-6.335,-0l0,-2.622l5.221,0c0.393,0 0.633,-0.218 0.721,-0.655l0.568,-2.665l-0.393,0c-0.321,0.656 -0.729,1.132 -1.224,1.431c-0.495,0.299 -1.114,0.448 -1.856,0.448c-0.437,-0 -0.845,-0.077 -1.224,-0.23c-0.378,-0.152 -0.713,-0.371 -1.004,-0.655c-0.292,-0.284 -0.521,-0.633 -0.689,-1.048c-0.167,-0.415 -0.251,-0.892 -0.251,-1.431c0,-0.364 0.044,-0.743 0.131,-1.136l0.852,-4.041l-0.218,-0.153l-1.311,0.917l-1.376,-2.053l1.595,-1.07c0.276,-0.19 0.56,-0.328 0.851,-0.415c0.292,-0.088 0.583,-0.131 0.874,-0.131c0.321,-0 0.626,0.054 0.918,0.164c0.291,0.109 0.546,0.262 0.764,0.458c0.219,0.197 0.393,0.437 0.524,0.721c0.132,0.284 0.197,0.608 0.197,0.972c0,0.204 -0.022,0.422 -0.065,0.655l-0.787,3.626Z" style="fill:rgb(131,133,136);fill-rule:nonzero;"/>
            <path d="M742.253,211.602l0.219,0.152l1.179,-0.83l1.376,2.054l-1.419,0.961c-0.306,0.204 -0.608,0.349 -0.907,0.437c-0.298,0.087 -0.593,0.131 -0.885,0.131c-0.553,-0 -1.048,-0.153 -1.485,-0.459c-0.437,-0.306 -0.714,-0.735 -0.83,-1.289l-0.393,0c-0.131,0.248 -0.284,0.477 -0.459,0.688c-0.175,0.212 -0.389,0.394 -0.644,0.546c-0.255,0.153 -0.554,0.277 -0.896,0.372c-0.342,0.094 -0.746,0.142 -1.212,0.142c-0.568,-0 -1.092,-0.113 -1.573,-0.339c-0.481,-0.225 -0.899,-0.539 -1.256,-0.939c-0.357,-0.401 -0.637,-0.87 -0.841,-1.409c-0.204,-0.539 -0.306,-1.129 -0.306,-1.769c0,-0.976 0.131,-1.886 0.393,-2.731c0.263,-0.844 0.641,-1.583 1.136,-2.217c0.495,-0.633 1.103,-1.132 1.824,-1.496c0.721,-0.364 1.533,-0.546 2.436,-0.546c0.772,-0 1.398,0.174 1.878,0.524c0.481,0.349 0.794,0.801 0.94,1.354l0.393,0l1.332,-6.334l2.774,-0l-1.354,6.334l-1.42,6.663Zm-5.286,0.284c0.524,-0 0.99,-0.106 1.398,-0.317c0.408,-0.211 0.746,-0.492 1.016,-0.841c0.269,-0.35 0.477,-0.761 0.622,-1.234c0.146,-0.474 0.219,-0.972 0.219,-1.497c-0,-0.684 -0.197,-1.241 -0.59,-1.671c-0.393,-0.429 -0.917,-0.644 -1.573,-0.644c-0.524,-0 -0.99,0.106 -1.398,0.317c-0.407,0.211 -0.75,0.491 -1.026,0.841c-0.277,0.349 -0.488,0.761 -0.634,1.234c-0.145,0.473 -0.218,0.972 -0.218,1.496c-0,0.612 0.178,1.151 0.535,1.617c0.357,0.466 0.906,0.699 1.649,0.699Z" style="fill:rgb(131,133,136);fill-rule:nonzero;"/>
            <path d="M749.047,205.944l-0.219,-0.131l-1.725,1.267l-1.464,-1.966l1.748,-1.311c0.335,-0.247 0.688,-0.433 1.059,-0.557c0.371,-0.123 0.724,-0.185 1.059,-0.185c0.583,-0 1.093,0.16 1.529,0.48c0.437,0.321 0.699,0.772 0.787,1.355l0.393,-0c0.291,-0.612 0.699,-1.071 1.223,-1.377c0.525,-0.305 1.114,-0.458 1.77,-0.458c0.83,-0 1.503,0.258 2.02,0.775c0.517,0.517 0.776,1.234 0.776,2.152c-0,0.189 -0.011,0.375 -0.033,0.557c-0.022,0.182 -0.062,0.404 -0.12,0.666l-0.109,0.481l-2.928,0.218l0.066,-0.306c0.044,-0.218 0.066,-0.415 0.066,-0.59c-0,-0.422 -0.117,-0.757 -0.35,-1.004c-0.233,-0.248 -0.582,-0.372 -1.048,-0.372c-0.583,0 -1.045,0.197 -1.388,0.59c-0.342,0.393 -0.593,0.954 -0.753,1.682l-0.787,3.67l2.622,-0l-0,2.621l-7.471,-0l0,-2.621l2.097,-0l1.18,-5.636Z" style="fill:rgb(131,133,136);fill-rule:nonzero;"/>
            <path d="M770.716,207.429c-0,1.02 -0.146,1.963 -0.437,2.829c-0.291,0.867 -0.721,1.613 -1.289,2.239c-0.568,0.626 -1.278,1.118 -2.13,1.475c-0.852,0.356 -1.838,0.535 -2.96,0.535c-0.64,-0 -1.241,-0.095 -1.802,-0.284c-0.56,-0.189 -1.052,-0.47 -1.474,-0.841c-0.422,-0.371 -0.757,-0.827 -1.005,-1.365c-0.247,-0.539 -0.371,-1.151 -0.371,-1.835c-0,-1.122 0.174,-2.123 0.524,-3.004c0.349,-0.881 0.826,-1.627 1.431,-2.239c0.604,-0.611 1.318,-1.077 2.14,-1.398c0.823,-0.32 1.708,-0.48 2.654,-0.48c0.685,-0 1.318,0.105 1.901,0.316c0.582,0.212 1.081,0.506 1.496,0.885c0.415,0.379 0.739,0.837 0.972,1.376c0.233,0.539 0.35,1.136 0.35,1.791Zm-6.401,4.5c0.525,-0.014 1.009,-0.131 1.453,-0.349c0.444,-0.219 0.823,-0.506 1.136,-0.863c0.313,-0.357 0.557,-0.776 0.732,-1.256c0.174,-0.481 0.262,-0.99 0.262,-1.529c-0,-0.757 -0.204,-1.329 -0.612,-1.715c-0.408,-0.386 -0.954,-0.579 -1.638,-0.579c-0.524,0 -1.005,0.113 -1.442,0.339c-0.437,0.226 -0.815,0.524 -1.136,0.895c-0.32,0.372 -0.568,0.798 -0.742,1.278c-0.175,0.481 -0.262,0.983 -0.262,1.507c-0,0.743 0.203,1.307 0.611,1.693c0.408,0.386 0.954,0.579 1.638,0.579Z" style="fill:rgb(131,133,136);fill-rule:nonzero;"/>
            <path d="M780.283,212.628l-0.393,0c-0.16,0.248 -0.342,0.484 -0.546,0.71c-0.204,0.226 -0.451,0.426 -0.743,0.601c-0.291,0.175 -0.64,0.313 -1.048,0.415c-0.408,0.102 -0.881,0.153 -1.42,0.153c-0.524,-0 -1.016,-0.088 -1.474,-0.262c-0.459,-0.175 -0.856,-0.437 -1.191,-0.787c-0.335,-0.349 -0.601,-0.79 -0.797,-1.321c-0.197,-0.532 -0.295,-1.154 -0.295,-1.868c-0,-0.903 0.135,-1.787 0.404,-2.654c0.269,-0.866 0.666,-1.638 1.19,-2.315c0.525,-0.677 1.176,-1.22 1.955,-1.628c0.78,-0.407 1.686,-0.611 2.72,-0.611c0.888,-0 1.562,0.171 2.021,0.513c0.458,0.342 0.746,0.797 0.862,1.365l0.394,0l0.327,-1.573l2.753,0l-2.862,13.5c-0.117,0.495 -0.364,0.903 -0.743,1.223c-0.378,0.321 -0.815,0.481 -1.31,0.481l-6.728,-0l-0,-2.622l5.635,0c0.394,0 0.634,-0.218 0.721,-0.655l0.568,-2.665Zm-2.73,-0.742c0.524,-0 1.008,-0.11 1.452,-0.328c0.445,-0.219 0.83,-0.51 1.158,-0.874c0.328,-0.364 0.583,-0.786 0.765,-1.267c0.182,-0.48 0.273,-0.983 0.273,-1.507c-0,-0.699 -0.204,-1.245 -0.612,-1.638c-0.408,-0.393 -0.983,-0.59 -1.726,-0.59c-0.553,-0 -1.055,0.109 -1.507,0.328c-0.451,0.218 -0.833,0.506 -1.147,0.862c-0.313,0.357 -0.557,0.772 -0.731,1.246c-0.175,0.473 -0.262,0.957 -0.262,1.452c-0,0.772 0.214,1.351 0.644,1.737c0.43,0.386 0.994,0.579 1.693,0.579Z" style="fill:rgb(131,133,136);fill-rule:nonzero;"/>
            <path d="M788.868,209.679c-0.029,0.117 -0.044,0.241 -0.044,0.372c0,0.524 0.2,0.961 0.601,1.31c0.4,0.35 0.928,0.525 1.584,0.525c0.684,-0 1.23,-0.124 1.638,-0.372c0.408,-0.247 0.721,-0.539 0.939,-0.874l2.184,1.377c-0.174,0.291 -0.404,0.582 -0.688,0.873c-0.284,0.292 -0.633,0.557 -1.048,0.798c-0.415,0.24 -0.903,0.437 -1.464,0.589c-0.56,0.153 -1.212,0.23 -1.955,0.23c-0.67,-0 -1.285,-0.106 -1.845,-0.317c-0.561,-0.211 -1.042,-0.502 -1.442,-0.874c-0.401,-0.371 -0.714,-0.815 -0.939,-1.332c-0.226,-0.517 -0.339,-1.089 -0.339,-1.715c0,-0.99 0.149,-1.922 0.448,-2.796c0.298,-0.874 0.732,-1.638 1.3,-2.293c0.567,-0.656 1.266,-1.173 2.097,-1.551c0.83,-0.379 1.783,-0.568 2.861,-0.568c0.757,-0 1.416,0.12 1.977,0.36c0.561,0.24 1.023,0.561 1.387,0.961c0.364,0.401 0.637,0.856 0.819,1.365c0.182,0.51 0.273,1.034 0.273,1.573c0,0.175 -0.011,0.353 -0.033,0.535c-0.021,0.182 -0.061,0.419 -0.12,0.71l-0.24,1.114l-7.951,0Zm3.451,-4.128c-0.684,-0 -1.278,0.171 -1.78,0.513c-0.502,0.342 -0.877,0.761 -1.125,1.256l5.111,0c0,-0.553 -0.171,-0.986 -0.513,-1.299c-0.342,-0.314 -0.906,-0.47 -1.693,-0.47Z" style="fill:rgb(131,133,136);fill-rule:nonzero;"/>
            <path d="M806.911,207.91c0.058,-0.277 0.087,-0.51 0.087,-0.699c0,-0.524 -0.153,-0.932 -0.459,-1.223c-0.305,-0.292 -0.72,-0.437 -1.245,-0.437c-0.655,-0 -1.216,0.233 -1.682,0.699c-0.466,0.466 -0.779,1.092 -0.939,1.878l-1.289,6.073l-2.752,-0l2.294,-10.835l2.643,0l-0.372,1.748l0.394,-0c0.349,-0.728 0.811,-1.252 1.387,-1.573c0.575,-0.32 1.212,-0.48 1.911,-0.48c0.917,-0 1.649,0.276 2.195,0.83c0.546,0.553 0.819,1.332 0.819,2.337c0,0.233 -0.014,0.448 -0.043,0.644c-0.029,0.197 -0.066,0.412 -0.11,0.645l-0.873,4.085l0.218,0.152l0.939,-0.655l1.377,2.053l-1.18,0.787c-0.553,0.378 -1.143,0.568 -1.769,0.568c-0.321,-0 -0.626,-0.055 -0.918,-0.164c-0.291,-0.109 -0.546,-0.262 -0.764,-0.459c-0.219,-0.196 -0.393,-0.437 -0.525,-0.721c-0.131,-0.284 -0.196,-0.608 -0.196,-0.972c-0,-0.189 0.022,-0.407 0.065,-0.655l0.787,-3.626Z" style="fill:rgb(131,133,136);fill-rule:nonzero;"/>
            <path d="M823.899,442.205c-3.903,0.264 -5.547,2.852 -6.42,5.579c-0.768,2.399 -1.629,4.875 -2.566,6.148c-0.52,0.706 -1.099,1.068 -1.663,1.068c-0.559,0 -0.969,-0.295 -1.231,-0.849c-0.4,-0.843 -0.39,-2.494 -0.284,-4.147c0.083,-1.298 0.211,-2.595 0.155,-3.425c-0.008,-0.12 -0.033,-0.257 -0.055,-0.358c-0.048,0.025 -0.097,0.059 -0.146,0.097c-0.184,0.138 -0.366,0.339 -0.551,0.578c-0.64,0.831 -1.272,2.09 -1.871,3.183c-0.51,0.932 -1.007,1.748 -1.449,2.159c-0.301,0.278 -0.606,0.402 -0.88,0.402c-0.517,0 -0.889,-0.315 -1.032,-0.973c-0.183,-0.84 0.072,-2.491 0.372,-4.139c0.238,-1.305 0.495,-2.61 0.504,-3.446c0.001,-0.106 -0.011,-0.226 -0.023,-0.32c-0.072,0.042 -0.143,0.104 -0.219,0.175c-0.231,0.213 -0.46,0.52 -0.693,0.888c-0.774,1.224 -1.544,3.077 -2.247,4.687c-0.579,1.324 -1.12,2.49 -1.574,3.073c-0.326,0.419 -0.675,0.587 -0.947,0.587c-0.517,0 -0.871,-0.268 -1.074,-0.769c-0.279,-0.686 -0.176,-2.033 0.022,-3.378c0.123,-0.836 0.27,-1.671 0.332,-2.314c0.016,-0.158 0.018,-0.336 0.015,-0.48c-0.046,0.023 -0.095,0.048 -0.148,0.075c-0.427,0.215 -0.975,0.561 -1.598,0.946c-1.091,0.672 -2.399,1.442 -3.695,1.897c-0.264,1.046 -0.69,2.04 -1.252,2.815c-0.747,1.029 -1.731,1.678 -2.877,1.678c-1.008,0 -1.635,-0.511 -2.033,-1.238c-0.336,-0.613 -0.493,-1.398 -0.588,-2.099c-0.043,-0.316 -0.101,-0.692 -0.141,-0.95c-0.207,0.089 -0.484,0.212 -0.734,0.33c-0.44,0.209 -0.953,0.439 -1.504,0.625c-0.232,1.093 -0.631,2.134 -1.167,2.941c-0.706,1.065 -1.652,1.729 -2.742,1.729c-0.969,0 -1.605,-0.539 -2.015,-1.325c-0.341,-0.653 -0.515,-1.49 -0.624,-2.236c-0.046,-0.319 -0.081,-0.619 -0.114,-0.874c-0.132,0.152 -0.272,0.331 -0.422,0.52c-0.444,0.56 -0.961,1.199 -1.541,1.625c-0.46,0.337 -0.96,0.545 -1.491,0.545c-0.955,0 -1.7,-0.464 -2.244,-1.269c-0.447,-0.663 -0.752,-1.581 -0.922,-2.641c-0.781,0.569 -1.647,1.064 -2.494,1.514c-0.004,0.11 -0.011,0.221 -0.022,0.33c-0.113,1.181 -0.677,2.474 -1.4,3.32c-0.557,0.653 -1.22,1.036 -1.842,1.036c-0.324,-0 -0.701,-0.126 -1.032,-0.368c-0.472,-0.345 -0.845,-0.918 -0.845,-1.598c-0,-0.687 0.518,-1.349 1.437,-1.954c0.688,-0.453 1.613,-0.902 2.594,-1.405c-0.061,-0.665 -0.262,-1.306 -0.586,-1.772c-0.243,-0.35 -0.554,-0.601 -0.947,-0.601c-1.216,0 -2.024,0.706 -2.604,1.597c-0.649,0.998 -1.023,2.23 -1.307,3.151c-0.198,0.642 -0.367,1.15 -0.528,1.4c-0.196,0.304 -0.442,0.401 -0.651,0.401c-0.112,-0 -0.232,-0.03 -0.349,-0.118c-0.073,-0.055 -0.2,-0.193 -0.284,-0.455c-0.131,-0.409 -0.292,-1.418 -0.423,-2.772c-0.522,0.835 -1.035,1.597 -1.517,2.248c-0.767,1.036 -1.464,1.799 -1.993,2.168c-0.33,0.231 -0.627,0.327 -0.861,0.327c-1.019,-0 -1.591,-0.716 -1.768,-1.915c-0.199,-1.354 0.12,-3.405 0.429,-5.187c0.157,-0.905 0.308,-1.738 0.374,-2.359c0.017,-0.168 0.02,-0.355 0.019,-0.497c-0.47,0.039 -0.983,0.151 -1.502,0.264c-0.347,1.895 -1.409,4.164 -2.795,5.803c-1.171,1.383 -2.579,2.304 -3.958,2.304c-1.671,-0 -2.879,-0.652 -3.701,-1.654c-1.038,0.869 -2.188,1.409 -3.332,1.409c-1.208,0 -2.213,-0.917 -2.908,-2.497c-0.228,-0.52 -0.427,-1.113 -0.595,-1.761c-0.54,1.09 -1.085,2.081 -1.612,2.91c-0.63,0.991 -1.24,1.759 -1.784,2.218c-0.465,0.392 -0.91,0.575 -1.291,0.575c-0.827,-0 -1.413,-0.562 -1.739,-1.571c-0.37,-1.143 -0.418,-2.927 -0.399,-4.713c0.018,-1.69 0.091,-3.381 -0.05,-4.462c-0.032,-0.244 -0.073,-0.452 -0.134,-0.613c-0.01,-0.026 -0.026,-0.057 -0.04,-0.083c-0.035,0.023 -0.068,0.06 -0.107,0.098c-0.151,0.144 -0.298,0.354 -0.448,0.61c-0.527,0.901 -1.042,2.309 -1.551,3.716c-0.625,1.73 -1.244,3.457 -1.834,4.34c-0.38,0.568 -0.812,0.827 -1.18,0.827c-0.424,-0 -0.788,-0.26 -0.995,-0.83c-0.265,-0.73 -0.282,-2.158 -0.272,-3.588c0.007,-1.121 0.025,-2.242 -0.106,-2.96c-0.022,-0.119 -0.071,-0.26 -0.102,-0.343c-0.251,0.054 -0.46,0.271 -0.676,0.545c-0.535,0.68 -1.001,1.747 -1.494,2.81c-0.538,1.16 -1.108,2.315 -1.784,3.057c-0.544,0.598 -1.164,0.945 -1.865,0.945c-1.117,0 -1.719,-0.792 -1.858,-2.19c-0.16,-1.602 0.293,-4.107 0.729,-6.61c0.157,-0.899 0.312,-1.798 0.43,-2.65c-0.201,0.039 -0.411,0.059 -0.628,0.059c-2.277,0 -2.974,-2.13 -2.544,-3.872c0.298,-1.207 1.145,-2.15 2.232,-2.15c1.245,-0 1.916,0.794 2.147,2.152c0.083,0.489 0.104,1.061 0.082,1.691c0.076,-0.105 0.148,-0.215 0.216,-0.331c0.553,-0.939 0.843,-2.194 0.881,-3.447c0.037,-1.251 -0.176,-2.503 -0.662,-3.441c-0.423,-0.817 -1.057,-1.39 -1.946,-1.39c-1.485,-0 -2.722,0.887 -3.678,2.271c-1.547,2.24 -2.358,5.756 -2.23,9.324c0.165,4.596 1.153,9.278 0.614,11.674c-0.172,0.763 -0.496,1.325 -0.972,1.663c-0.337,0.24 -0.756,0.377 -1.276,0.377c-0.899,0 -1.68,-0.553 -2.322,-1.461c-0.815,-1.152 -1.426,-2.893 -1.915,-4.409c-0.308,-0.954 -0.566,-1.812 -0.806,-2.346c-0.009,-0.021 -0.02,-0.043 -0.031,-0.066l-0.028,0.039c-0.287,0.43 -0.609,1.122 -0.963,1.889c-0.668,1.448 -1.44,3.143 -2.236,4.033c-0.455,0.509 -0.944,0.775 -1.409,0.775c-0.548,0 -1.021,-0.373 -1.3,-1.176c-0.43,-1.238 -0.473,-3.723 -0.443,-6.538c0.038,-3.478 0.166,-7.477 -0.347,-10.121c-0.156,-0.806 -0.368,-1.479 -0.678,-1.946c-0.23,-0.346 -0.514,-0.564 -0.895,-0.564c-0.656,-0 -1.114,0.565 -1.483,1.323c-0.68,1.398 -0.97,3.489 -0.937,5.204c0.054,2.842 1.016,4.648 1.016,4.648c0.143,0.266 0.044,0.598 -0.222,0.741c-0.266,0.143 -0.598,0.043 -0.741,-0.222c0,-0 -1.086,-1.997 -1.146,-5.146c-0.037,-1.88 0.301,-4.171 1.047,-5.703c0.582,-1.197 1.43,-1.939 2.466,-1.939c1.159,0 1.981,0.914 2.438,2.513c0.57,1.99 0.637,5.1 0.612,8.211c-0.028,3.509 -0.175,7.019 0.241,8.809c0.059,0.255 0.129,0.47 0.218,0.634c0.049,0.09 0.074,0.179 0.154,0.179c0.113,-0 0.218,-0.069 0.331,-0.158c0.187,-0.148 0.369,-0.363 0.552,-0.619c0.632,-0.886 1.231,-2.229 1.769,-3.396c0.453,-0.982 0.872,-1.846 1.223,-2.279c0.281,-0.346 0.582,-0.477 0.819,-0.477c0.219,-0 0.484,0.107 0.708,0.424c0.226,0.318 0.473,0.967 0.74,1.783c0.478,1.461 1.06,3.509 1.906,4.911c0.463,0.767 0.975,1.357 1.662,1.357c0.527,-0 0.849,-0.265 1.037,-0.719c0.165,-0.4 0.243,-0.916 0.273,-1.521c0.123,-2.53 -0.629,-6.467 -0.769,-10.342c-0.137,-3.823 0.765,-7.584 2.423,-9.985c1.18,-1.709 2.744,-2.743 4.578,-2.743c1.062,0 1.906,0.51 2.523,1.344c0.828,1.12 1.23,2.864 1.178,4.614c-0.053,1.745 -0.558,3.484 -1.47,4.601c-0.254,0.311 -0.539,0.577 -0.853,0.786c-0.123,1.051 -0.311,2.183 -0.509,3.315c-0.416,2.393 -0.871,4.784 -0.718,6.315c0.069,0.696 0.214,1.204 0.77,1.204c0.531,0 0.943,-0.397 1.334,-0.928c0.49,-0.665 0.912,-1.554 1.323,-2.44c0.533,-1.148 1.049,-2.292 1.627,-3.027c0.493,-0.626 1.051,-0.975 1.657,-0.975c0.403,0 0.767,0.259 0.957,0.849c0.233,0.726 0.232,2.147 0.222,3.569c-0.007,1.115 -0.016,2.231 0.135,2.945c0.021,0.1 0.064,0.215 0.097,0.298c0.009,-0.008 0.017,-0.016 0.024,-0.023c0.136,-0.145 0.27,-0.358 0.409,-0.616c0.486,-0.904 0.984,-2.319 1.495,-3.733c0.628,-1.739 1.283,-3.473 1.938,-4.36c0.403,-0.546 0.851,-0.806 1.259,-0.806c0.423,-0 0.785,0.248 0.998,0.807c0.274,0.717 0.306,2.154 0.282,3.782c-0.027,1.938 -0.114,4.167 0.209,5.639c0.074,0.34 0.169,0.635 0.3,0.865c0.125,0.218 0.278,0.369 0.51,0.369c0.18,0 0.366,-0.132 0.585,-0.317c0.481,-0.406 1.01,-1.093 1.567,-1.968c0.71,-1.118 1.453,-2.534 2.169,-4.091c-0.249,-1.537 -0.367,-3.248 -0.357,-4.96c0.007,-1.281 0.086,-2.561 0.232,-3.768c-3.088,0.172 -4.626,0.44 -4.626,0.44c-0.237,0.042 -0.464,-0.118 -0.506,-0.355c-0.041,-0.238 0.118,-0.465 0.356,-0.507c-0,0 1.627,-0.285 4.897,-0.461c0.303,-1.974 0.795,-3.688 1.451,-4.793c0.595,-1.001 1.346,-1.535 2.167,-1.535c0.705,-0 1.198,0.435 1.406,1.306c0.216,0.9 0.102,2.384 -0.273,4.173c-0.049,0.234 -0.102,0.473 -0.16,0.718c2.074,-0.013 4.488,0.029 7.244,0.163c0.241,0.012 0.427,0.217 0.416,0.458c-0.012,0.242 -0.217,0.428 -0.459,0.416c-2.84,-0.138 -5.313,-0.178 -7.419,-0.161c-0.737,2.819 -1.936,6.13 -3.239,9.016c0.198,1.118 0.474,2.124 0.832,2.938c0.481,1.093 1.071,1.844 1.907,1.844c0.946,-0 1.88,-0.496 2.729,-1.237c-0.785,-1.509 -0.969,-3.455 -0.713,-5.2c0.202,-1.381 0.678,-2.619 1.306,-3.392c0.504,-0.62 1.112,-0.959 1.758,-0.959c0.698,-0 1.216,0.222 1.588,0.583c0.519,0.504 0.761,1.321 0.706,2.323c-0.109,2.003 -1.392,4.814 -3.173,6.736l-0.076,0.081c0.64,0.795 1.584,1.309 2.908,1.309c0.935,0 1.856,-0.589 2.688,-1.437c1.354,-1.383 2.449,-3.475 2.889,-5.294l0.013,-0.054c-0.272,0.04 -0.539,0.066 -0.793,0.066c-1.732,0 -2.409,-1.524 -2.134,-2.753c0.193,-0.86 0.837,-1.56 1.864,-1.56c0.696,-0 1.217,0.224 1.595,0.593c0.516,0.502 0.771,1.313 0.751,2.307c0.602,-0.131 1.192,-0.253 1.713,-0.253c0.283,0 0.512,0.129 0.655,0.429c0.08,0.166 0.13,0.447 0.117,0.821c-0.023,0.66 -0.214,1.722 -0.419,2.901c-0.288,1.664 -0.61,3.576 -0.424,4.841c0.081,0.55 0.218,0.98 0.686,0.98c0.028,0 0.056,-0.022 0.092,-0.04c0.099,-0.052 0.208,-0.131 0.327,-0.231c0.437,-0.368 0.97,-0.988 1.556,-1.781c0.705,-0.953 1.481,-2.15 2.25,-3.467c-0.233,-3.855 -0.161,-9.094 0.945,-11.994c0.594,-1.556 1.513,-2.466 2.704,-2.466c0.569,-0 1.006,0.169 1.335,0.454c0.32,0.278 0.543,0.676 0.657,1.187c0.184,0.827 0.075,1.995 -0.27,3.356c-0.721,2.839 -2.456,6.581 -4.26,9.72c0.009,0.121 0.017,0.24 0.025,0.358c0.067,0.913 0.149,1.722 0.234,2.366c0.306,-0.989 0.72,-2.267 1.402,-3.315c0.777,-1.195 1.889,-2.093 3.52,-2.093c0.748,-0 1.384,0.404 1.846,1.07c0.347,0.5 0.593,1.155 0.714,1.854c0.858,-0.47 1.71,-0.994 2.44,-1.608c-0.012,-0.208 -0.02,-0.418 -0.024,-0.632c-0.053,-3.139 0.792,-6.823 2.11,-8.754c0.666,-0.976 1.472,-1.522 2.315,-1.522c0.489,0 0.86,0.156 1.135,0.413c0.368,0.345 0.573,0.91 0.563,1.65c-0.029,2.241 -2.071,6.401 -4.786,9.124c-0.059,0.06 -0.12,0.119 -0.182,0.177c0.089,0.916 0.274,1.742 0.578,2.391c0.349,0.744 0.852,1.245 1.594,1.245c0.394,-0 0.744,-0.23 1.073,-0.518c0.409,-0.36 0.775,-0.826 1.101,-1.237c0.359,-0.454 0.683,-0.848 0.954,-1.047c0.217,-0.16 0.429,-0.227 0.615,-0.227c0.188,0 0.376,0.072 0.524,0.279c0.055,0.077 0.112,0.195 0.155,0.352c0.055,0.201 0.098,0.51 0.144,0.879c0.083,0.661 0.184,1.544 0.474,2.26c0.22,0.545 0.547,1.004 1.167,1.004c0.743,-0 1.349,-0.514 1.831,-1.24c0.379,-0.571 0.677,-1.276 0.883,-2.03c-0.273,0.045 -0.549,0.07 -0.824,0.07c-2.775,0 -3.816,-2.486 -3.436,-4.493c0.266,-1.405 1.221,-2.534 2.669,-2.534c1.909,0 2.921,1.827 3.012,4.125c0.016,0.421 0.003,0.857 -0.038,1.295c0.479,-0.197 0.912,-0.414 1.264,-0.582c0.49,-0.233 0.874,-0.369 1.077,-0.369c0.233,-0 0.455,0.102 0.611,0.378c0.107,0.189 0.187,0.571 0.248,1.056c0.075,0.607 0.15,1.419 0.424,2.077c0.209,0.501 0.547,0.909 1.188,0.909c0.805,-0 1.467,-0.504 1.991,-1.227c0.38,-0.524 0.686,-1.162 0.91,-1.847c-0.277,0.047 -0.549,0.073 -0.815,0.073c-2.759,-0 -3.868,-2.49 -3.435,-4.495c0.297,-1.38 1.307,-2.514 2.954,-2.514c1.839,0 2.807,1.797 2.836,4.063c0.005,0.424 -0.021,0.861 -0.077,1.301c1.018,-0.433 2.024,-1.05 2.887,-1.582c0.771,-0.476 1.436,-0.893 1.912,-1.103c0.285,-0.125 0.525,-0.182 0.705,-0.182c0.358,0 0.664,0.203 0.77,0.717c0.092,0.453 -0.015,1.363 -0.173,2.392c-0.181,1.172 -0.417,2.52 -0.339,3.41c0.012,0.142 0.032,0.269 0.066,0.377c0.015,0.045 0.018,0.094 0.036,0.122c0.038,-0.037 0.093,-0.092 0.131,-0.141c0.111,-0.142 0.226,-0.325 0.347,-0.54c0.504,-0.897 1.083,-2.299 1.698,-3.701c0.754,-1.717 1.571,-3.428 2.359,-4.304c0.455,-0.505 0.932,-0.756 1.371,-0.756c0.322,0 0.568,0.144 0.738,0.433c0.127,0.217 0.205,0.577 0.2,1.049c-0.01,0.88 -0.272,2.256 -0.522,3.63c-0.235,1.292 -0.464,2.583 -0.417,3.409c0.007,0.124 0.04,0.267 0.064,0.36c0.026,-0.018 0.053,-0.038 0.073,-0.058c0.097,-0.089 0.196,-0.206 0.298,-0.342c0.453,-0.605 0.942,-1.55 1.453,-2.495c0.547,-1.01 1.12,-2.016 1.688,-2.662c0.491,-0.56 1.013,-0.859 1.496,-0.859c0.376,-0 0.701,0.217 0.86,0.738c0.172,0.559 0.136,1.683 0.048,2.954c-0.103,1.483 -0.26,3.188 -0.076,4.315c0.04,0.246 0.094,0.459 0.179,0.625c0.055,0.109 0.116,0.198 0.23,0.198c0.159,-0 0.302,-0.103 0.452,-0.243c0.235,-0.22 0.459,-0.54 0.682,-0.928c0.746,-1.302 1.425,-3.323 2.054,-5.285c1.022,-3.193 2.997,-6.182 7.697,-6.354l0.063,-0.292c0.027,-0.13 0.156,-0.213 0.286,-0.185l0.292,0.062c0.13,0.028 0.213,0.156 0.185,0.286l-0.051,0.242c0.003,0.002 0.005,0.004 0.008,0.006l0.228,0.045l0.054,-0.254c0.038,-0.18 0.215,-0.294 0.395,-0.256l0.409,0.087c0.179,0.039 0.294,0.215 0.255,0.395l-0.05,0.238l0.217,0.043l0.047,-0.242c0.041,-0.208 0.241,-0.346 0.451,-0.31l3.693,0.636c0.217,0.037 0.36,0.245 0.318,0.461l-0.012,0.058l0.026,0.005c0.109,0.022 0.189,0.108 0.206,0.211l3.258,0.642c0.15,0.029 0.268,0.128 0.328,0.256l1.106,0.131l0.309,0.411l-0.071,0.364l-0.442,0.263l-1.071,-0.3c-0.105,0.097 -0.252,0.144 -0.403,0.114l-3.258,-0.642c-0.055,0.089 -0.161,0.139 -0.27,0.117l-0.026,-0.005l-0.012,0.058c-0.042,0.216 -0.254,0.354 -0.469,0.307l-3.658,-0.813c-0.208,-0.046 -0.34,-0.249 -0.299,-0.458l0.047,-0.241l-0.233,-0.046l-0.054,0.254c-0.038,0.18 -0.215,0.295 -0.395,0.256l-0.409,-0.087c-0.179,-0.038 -0.294,-0.215 -0.256,-0.395l0.051,-0.238l-0.237,-0.046l-0.055,0.258c-0.028,0.131 -0.156,0.214 -0.286,0.186l-0.292,-0.062c-0.13,-0.028 -0.214,-0.156 -0.186,-0.287l0.027,-0.125Zm-55.035,9.239c-0.413,0.212 -0.808,0.416 -1.171,0.617c-0.54,0.298 -1.003,0.585 -1.33,0.884c-0.22,0.201 -0.382,0.389 -0.382,0.614c-0,0.308 0.182,0.559 0.396,0.715c0.126,0.092 0.264,0.157 0.387,0.157c0.354,0 0.693,-0.28 1.011,-0.652c0.514,-0.602 0.928,-1.481 1.089,-2.335Zm-24.691,-0.638c1.165,-1.309 2.083,-3.026 2.505,-4.547c0.207,-0.747 0.296,-1.442 0.216,-2.01c-0.048,-0.338 -0.152,-0.625 -0.354,-0.821c-0.191,-0.185 -0.467,-0.274 -0.826,-0.274c-0.344,0 -0.641,0.225 -0.909,0.555c-0.528,0.65 -0.904,1.7 -1.073,2.861c-0.205,1.397 -0.114,2.98 0.441,4.236Zm40.675,-1.348c0.079,-0.549 0.11,-1.102 0.089,-1.63c-0.035,-0.878 -0.209,-1.686 -0.569,-2.271c-0.301,-0.488 -0.741,-0.803 -1.35,-0.803c-0.901,-0 -1.429,0.769 -1.595,1.643c-0.267,1.411 0.413,3.197 2.362,3.197c0.357,-0 0.715,-0.052 1.063,-0.136Zm9.154,-1.153c0.105,-0.568 0.156,-1.142 0.149,-1.689c-0.011,-0.855 -0.161,-1.643 -0.494,-2.213c-0.273,-0.467 -0.68,-0.77 -1.248,-0.77c-1.064,-0 -1.693,0.759 -1.885,1.65c-0.303,1.403 0.437,3.171 2.366,3.171c0.361,0 0.734,-0.054 1.112,-0.149Zm-31.899,-0.954c1.432,-2.682 2.713,-5.61 3.301,-7.923c0.293,-1.156 0.419,-2.146 0.262,-2.848c-0.056,-0.253 -0.147,-0.461 -0.306,-0.599c-0.15,-0.131 -0.357,-0.187 -0.618,-0.187c-0.793,0 -1.287,0.727 -1.682,1.763c-0.905,2.371 -1.069,6.369 -0.957,9.794Zm11.35,-0.353c1.907,-2.119 3.396,-4.911 3.822,-6.891c0.111,-0.515 0.15,-0.967 0.087,-1.326c-0.031,-0.178 -0.083,-0.328 -0.188,-0.427c-0.093,-0.086 -0.224,-0.118 -0.388,-0.118c-0.328,-0 -0.629,0.173 -0.914,0.445c-0.359,0.342 -0.683,0.835 -0.973,1.426c-0.884,1.803 -1.427,4.484 -1.446,6.891Zm-33.454,-7.931c-0.814,0.015 -1.566,0.039 -2.255,0.068c-0.154,1.219 -0.236,2.524 -0.243,3.828c-0.006,1.011 0.033,2.022 0.119,2.993c0.949,-2.288 1.797,-4.725 2.379,-6.889Zm13.437,6.119c0.022,-0.32 0.014,-0.62 -0.029,-0.891c-0.057,-0.353 -0.171,-0.653 -0.381,-0.858c-0.195,-0.19 -0.473,-0.283 -0.832,-0.283c-0.45,0 -0.712,0.33 -0.796,0.706c-0.141,0.627 0.183,1.42 1.066,1.42c0.31,0 0.637,-0.038 0.972,-0.094Zm-36.327,-4.641c0.088,-0.935 0.103,-1.777 -0.011,-2.451c-0.125,-0.732 -0.398,-1.242 -1.069,-1.242c-0.618,0 -1.001,0.633 -1.17,1.32c-0.271,1.098 0.046,2.516 1.482,2.516c0.276,-0 0.532,-0.051 0.768,-0.143Zm23.116,-2.357c0.08,-0.327 0.152,-0.646 0.217,-0.955c0.332,-1.585 0.471,-2.897 0.28,-3.694c-0.063,-0.263 -0.13,-0.468 -0.343,-0.468c-0.295,0 -0.554,0.161 -0.795,0.415c-0.318,0.335 -0.594,0.822 -0.839,1.417c-0.376,0.914 -0.668,2.069 -0.875,3.351c0.72,-0.029 1.505,-0.052 2.355,-0.066Z" style="fill:rgb(131,133,136);"/>
        </g>
        <g id="Drill">
            <g id="Jack">
                <path d="M576.107,277.078c0.143,0.248 0.143,0.553 0,0.801c-1.838,3.183 -14.056,24.345 -15.894,27.529c-0.143,0.247 -0.407,0.4 -0.693,0.4c-3.676,0 -28.112,0.001 -31.788,0.002c-0.286,-0 -0.551,-0.153 -0.694,-0.401c-1.838,-3.183 -14.056,-24.344 -15.894,-27.527c-0.143,-0.248 -0.143,-0.553 0,-0.801c1.838,-3.184 14.056,-24.346 15.894,-27.529c0.143,-0.248 0.408,-0.401 0.694,-0.401c3.676,0 28.112,-0.001 31.788,-0.001c0.286,-0 0.55,0.153 0.694,0.401c1.837,3.183 14.055,24.344 15.893,27.527Z" style="fill:rgb(254,255,254);stroke:rgb(17,18,24);stroke-width:4.17px;"/>
                <ellipse cx="543.626" cy="277.48" rx="17.08" ry="17.079" style="fill:rgb(131,133,136);"/>
                <path d="M543.626,257.668c10.935,0 19.812,8.878 19.812,19.812c0,10.934 -8.877,19.811 -19.812,19.811c-10.935,0 -19.813,-8.877 -19.813,-19.811c0,-10.934 8.878,-19.812 19.813,-19.812Zm-0,2.733c-9.427,-0 -17.08,7.653 -17.08,17.079c-0,9.426 7.653,17.079 17.08,17.079c9.427,-0 17.08,-7.653 17.08,-17.079c-0,-9.426 -7.653,-17.079 -17.08,-17.079Z" style="fill:rgb(131,133,136);"/>
            </g>
            <g id="Jack1" serif:id="Jack">
                <path d="M576.107,379.078c0.143,0.248 0.143,0.553 0,0.801c-1.838,3.183 -14.056,24.345 -15.894,27.529c-0.143,0.247 -0.407,0.4 -0.693,0.4c-3.676,0 -28.112,0.001 -31.788,0.002c-0.286,-0 -0.551,-0.153 -0.694,-0.401c-1.838,-3.183 -14.056,-24.344 -15.894,-27.527c-0.143,-0.248 -0.143,-0.553 0,-0.801c1.838,-3.184 14.056,-24.346 15.894,-27.529c0.143,-0.248 0.408,-0.401 0.694,-0.401c3.676,0 28.112,-0.001 31.788,-0.001c0.286,-0 0.55,0.153 0.694,0.401c1.837,3.183 14.055,24.344 15.893,27.527Z" style="fill:rgb(254,255,254);stroke:rgb(17,18,24);stroke-width:4.17px;"/>
                <ellipse cx="543.626" cy="379.48" rx="17.08" ry="17.079" style="fill:rgb(131,133,136);"/>
                <path d="M543.626,359.668c10.935,0 19.812,8.878 19.812,19.812c0,10.934 -8.877,19.811 -19.812,19.811c-10.935,0 -19.813,-8.877 -19.813,-19.811c0,-10.934 8.878,-19.812 19.813,-19.812Zm-0,2.733c-9.427,-0 -17.08,7.653 -17.08,17.079c-0,9.426 7.653,17.079 17.08,17.079c9.427,-0 17.08,-7.653 17.08,-17.079c-0,-9.426 -7.653,-17.079 -17.08,-17.079Z" style="fill:rgb(131,133,136);"/>
            </g>
            <g id="Jack2" serif:id="Jack">
                <path d="M729.107,277.078c0.143,0.248 0.143,0.553 0,0.801c-1.838,3.183 -14.056,24.345 -15.894,27.529c-0.143,0.247 -0.407,0.4 -0.693,0.4c-3.676,0 -28.112,0.001 -31.788,0.002c-0.286,-0 -0.551,-0.153 -0.694,-0.401c-1.838,-3.183 -14.056,-24.344 -15.894,-27.527c-0.143,-0.248 -0.143,-0.553 0,-0.801c1.838,-3.184 14.056,-24.346 15.894,-27.529c0.143,-0.248 0.408,-0.401 0.694,-0.401c3.676,0 28.112,-0.001 31.788,-0.001c0.286,-0 0.55,0.153 0.694,0.401c1.837,3.183 14.055,24.344 15.893,27.527Z" style="fill:rgb(254,255,254);stroke:rgb(17,18,24);stroke-width:4.17px;"/>
                <ellipse cx="696.626" cy="277.48" rx="17.08" ry="17.079" style="fill:rgb(131,133,136);"/>
                <path d="M696.626,257.668c10.935,0 19.812,8.878 19.812,19.812c0,10.934 -8.877,19.811 -19.812,19.811c-10.935,0 -19.813,-8.877 -19.813,-19.811c0,-10.934 8.878,-19.812 19.813,-19.812Zm-0,2.733c-9.427,-0 -17.08,7.653 -17.08,17.079c-0,9.426 7.653,17.079 17.08,17.079c9.427,-0 17.08,-7.653 17.08,-17.079c-0,-9.426 -7.653,-17.079 -17.08,-17.079Z" style="fill:rgb(131,133,136);"/>
            </g>
            <g id="Jack3" serif:id="Jack">
                <path d="M729.107,379.078c0.143,0.248 0.143,0.553 0,0.801c-1.838,3.183 -14.056,24.345 -15.894,27.529c-0.143,0.247 -0.407,0.4 -0.693,0.4c-3.676,0 -28.112,0.001 -31.788,0.002c-0.286,-0 -0.551,-0.153 -0.694,-0.401c-1.838,-3.183 -14.056,-24.344 -15.894,-27.527c-0.143,-0.248 -0.143,-0.553 0,-0.801c1.838,-3.184 14.056,-24.346 15.894,-27.529c0.143,-0.248 0.408,-0.401 0.694,-0.401c3.676,0 28.112,-0.001 31.788,-0.001c0.286,-0 0.55,0.153 0.694,0.401c1.837,3.183 14.055,24.344 15.893,27.527Z" style="fill:rgb(254,255,254);stroke:rgb(17,18,24);stroke-width:4.17px;"/>
                <ellipse cx="696.626" cy="379.48" rx="17.08" ry="17.079" style="fill:rgb(131,133,136);"/>
                <path d="M696.626,359.668c10.935,0 19.812,8.878 19.812,19.812c0,10.934 -8.877,19.811 -19.812,19.811c-10.935,0 -19.813,-8.877 -19.813,-19.811c0,-10.934 8.878,-19.812 19.813,-19.812Zm-0,2.733c-9.427,-0 -17.08,7.653 -17.08,17.079c-0,9.426 7.653,17.079 17.08,17.079c9.427,-0 17.08,-7.653 17.08,-17.079c-0,-9.426 -7.653,-17.079 -17.08,-17.079Z" style="fill:rgb(131,133,136);"/>
            </g>
            <g id="Jack4" serif:id="Jack">
                <path d="M820.107,277.078c0.143,0.248 0.143,0.553 0,0.801c-1.838,3.183 -14.056,24.345 -15.894,27.529c-0.143,0.247 -0.407,0.4 -0.693,0.4c-3.676,0 -28.112,0.001 -31.788,0.002c-0.286,-0 -0.551,-0.153 -0.694,-0.401c-1.838,-3.183 -14.056,-24.344 -15.894,-27.527c-0.143,-0.248 -0.143,-0.553 0,-0.801c1.838,-3.184 14.056,-24.346 15.894,-27.529c0.143,-0.248 0.408,-0.401 0.694,-0.401c3.676,0 28.112,-0.001 31.788,-0.001c0.286,-0 0.55,0.153 0.694,0.401c1.837,3.183 14.055,24.344 15.893,27.527Z" style="fill:rgb(254,255,254);stroke:rgb(17,18,24);stroke-width:4.17px;"/>
                <ellipse cx="787.626" cy="277.48" rx="17.08" ry="17.079" style="fill:rgb(131,133,136);"/>
                <path d="M787.626,257.668c10.935,0 19.812,8.878 19.812,19.812c0,10.934 -8.877,19.811 -19.812,19.811c-10.935,0 -19.813,-8.877 -19.813,-19.811c0,-10.934 8.878,-19.812 19.813,-19.812Zm-0,2.733c-9.427,-0 -17.08,7.653 -17.08,17.079c-0,9.426 7.653,17.079 17.08,17.079c9.427,-0 17.08,-7.653 17.08,-17.079c-0,-9.426 -7.653,-17.079 -17.08,-17.079Z" style="fill:rgb(131,133,136);"/>
            </g>
            <g id="Jack5" serif:id="Jack">
                <path d="M820.107,379.078c0.143,0.248 0.143,0.553 0,0.801c-1.838,3.183 -14.056,24.345 -15.894,27.529c-0.143,0.247 -0.407,0.4 -0.693,0.4c-3.676,0 -28.112,0.001 -31.788,0.002c-0.286,-0 -0.551,-0.153 -0.694,-0.401c-1.838,-3.183 -14.056,-24.344 -15.894,-27.527c-0.143,-0.248 -0.143,-0.553 0,-0.801c1.838,-3.184 14.056,-24.346 15.894,-27.529c0.143,-0.248 0.408,-0.401 0.694,-0.401c3.676,0 28.112,-0.001 31.788,-0.001c0.286,-0 0.55,0.153 0.694,0.401c1.837,3.183 14.055,24.344 15.893,27.527Z" style="fill:rgb(254,255,254);stroke:rgb(17,18,24);stroke-width:4.17px;"/>
                <ellipse cx="787.626" cy="379.48" rx="17.08" ry="17.079" style="fill:rgb(131,133,136);"/>
                <path d="M787.626,359.668c10.935,0 19.812,8.878 19.812,19.812c0,10.934 -8.877,19.811 -19.812,19.811c-10.935,0 -19.813,-8.877 -19.813,-19.811c0,-10.934 8.878,-19.812 19.813,-19.812Zm-0,2.733c-9.427,-0 -17.08,7.653 -17.08,17.079c-0,9.426 7.653,17.079 17.08,17.079c9.427,-0 17.08,-7.653 17.08,-17.079c-0,-9.426 -7.653,-17.079 -17.08,-17.079Z" style="fill:rgb(131,133,136);"/>
            </g>
            <g id="Jack6" serif:id="Jack">
                <path d="M917.107,277.078c0.143,0.248 0.143,0.553 0,0.801c-1.838,3.183 -14.056,24.345 -15.894,27.529c-0.143,0.247 -0.407,0.4 -0.693,0.4c-3.676,0 -28.112,0.001 -31.788,0.002c-0.286,-0 -0.551,-0.153 -0.694,-0.401c-1.838,-3.183 -14.056,-24.344 -15.894,-27.527c-0.143,-0.248 -0.143,-0.553 0,-0.801c1.838,-3.184 14.056,-24.346 15.894,-27.529c0.143,-0.248 0.408,-0.401 0.694,-0.401c3.676,0 28.112,-0.001 31.788,-0.001c0.286,-0 0.55,0.153 0.694,0.401c1.837,3.183 14.055,24.344 15.893,27.527Z" style="fill:rgb(254,255,254);stroke:rgb(17,18,24);stroke-width:4.17px;"/>
                <ellipse cx="884.626" cy="277.48" rx="17.08" ry="17.079" style="fill:rgb(131,133,136);"/>
                <path d="M884.626,257.668c10.935,0 19.812,8.878 19.812,19.812c0,10.934 -8.877,19.811 -19.812,19.811c-10.935,0 -19.813,-8.877 -19.813,-19.811c0,-10.934 8.878,-19.812 19.813,-19.812Zm-0,2.733c-9.427,-0 -17.08,7.653 -17.08,17.079c-0,9.426 7.653,17.079 17.08,17.079c9.427,-0 17.08,-7.653 17.08,-17.079c-0,-9.426 -7.653,-17.079 -17.08,-17.079Z" style="fill:rgb(131,133,136);"/>
            </g>
            <g id="Jack7" serif:id="Jack">
                <path d="M917.107,379.078c0.143,0.248 0.143,0.553 0,0.801c-1.838,3.183 -14.056,24.345 -15.894,27.529c-0.143,0.247 -0.407,0.4 -0.693,0.4c-3.676,0 -28.112,0.001 -31.788,0.002c-0.286,-0 -0.551,-0.153 -0.694,-0.401c-1.838,-3.183 -14.056,-24.344 -15.894,-27.527c-0.143,-0.248 -0.143,-0.553 0,-0.801c1.838,-3.184 14.056,-24.346 15.894,-27.529c0.143,-0.248 0.408,-0.401 0.694,-0.401c3.676,0 28.112,-0.001 31.788,-0.001c0.286,-0 0.55,0.153 0.694,0.401c1.837,3.183 14.055,24.344 15.893,27.527Z" style="fill:rgb(254,255,254);stroke:rgb(17,18,24);stroke-width:4.17px;"/>
                <ellipse cx="884.626" cy="379.48" rx="17.08" ry="17.079" style="fill:rgb(131,133,136);"/>
                <path d="M884.626,359.668c10.935,0 19.812,8.878 19.812,19.812c0,10.934 -8.877,19.811 -19.812,19.811c-10.935,0 -19.813,-8.877 -19.813,-19.811c0,-10.934 8.878,-19.812 19.813,-19.812Zm-0,2.733c-9.427,-0 -17.08,7.653 -17.08,17.079c-0,9.426 7.653,17.079 17.08,17.079c9.427,-0 17.08,-7.653 17.08,-17.079c-0,-9.426 -7.653,-17.079 -17.08,-17.079Z" style="fill:rgb(131,133,136);"/>
            </g>
            <g id="Jack8" serif:id="Jack">
                <path d="M1007.11,277.078c0.143,0.248 0.143,0.553 0,0.801c-1.838,3.183 -14.056,24.345 -15.894,27.529c-0.143,0.247 -0.407,0.4 -0.693,0.4c-3.676,0 -28.112,0.001 -31.788,0.002c-0.286,-0 -0.551,-0.153 -0.694,-0.401c-1.838,-3.183 -14.056,-24.344 -15.894,-27.527c-0.143,-0.248 -0.143,-0.553 0,-0.801c1.838,-3.184 14.056,-24.346 15.894,-27.529c0.143,-0.248 0.408,-0.401 0.694,-0.401c3.676,0 28.112,-0.001 31.788,-0.001c0.286,-0 0.55,0.153 0.694,0.401c1.837,3.183 14.055,24.344 15.893,27.527Z" style="fill:rgb(254,255,254);stroke:rgb(17,18,24);stroke-width:4.17px;"/>
                <ellipse cx="974.626" cy="277.48" rx="17.08" ry="17.079" style="fill:rgb(131,133,136);"/>
                <path d="M974.626,257.668c10.935,0 19.812,8.878 19.812,19.812c0,10.934 -8.877,19.811 -19.812,19.811c-10.935,0 -19.813,-8.877 -19.813,-19.811c0,-10.934 8.878,-19.812 19.813,-19.812Zm-0,2.733c-9.427,-0 -17.08,7.653 -17.08,17.079c-0,9.426 7.653,17.079 17.08,17.079c9.427,-0 17.08,-7.653 17.08,-17.079c-0,-9.426 -7.653,-17.079 -17.08,-17.079Z" style="fill:rgb(131,133,136);"/>
            </g>
            <g id="Jack9" serif:id="Jack">
                <path d="M1007.11,379.078c0.143,0.248 0.143,0.553 0,0.801c-1.838,3.183 -14.056,24.345 -15.894,27.529c-0.143,0.247 -0.407,0.4 -0.693,0.4c-3.676,0 -28.112,0.001 -31.788,0.002c-0.286,-0 -0.551,-0.153 -0.694,-0.401c-1.838,-3.183 -14.056,-24.344 -15.894,-27.527c-0.143,-0.248 -0.143,-0.553 0,-0.801c1.838,-3.184 14.056,-24.346 15.894,-27.529c0.143,-0.248 0.408,-0.401 0.694,-0.401c3.676,0 28.112,-0.001 31.788,-0.001c0.286,-0 0.55,0.153 0.694,0.401c1.837,3.183 14.055,24.344 15.893,27.527Z" style="fill:rgb(254,255,254);stroke:rgb(17,18,24);stroke-width:4.17px;"/>
                <ellipse cx="974.626" cy="379.48" rx="17.08" ry="17.079" style="fill:rgb(131,133,136);"/>
                <path d="M974.626,359.668c10.935,0 19.812,8.878 19.812,19.812c0,10.934 -8.877,19.811 -19.812,19.811c-10.935,0 -19.813,-8.877 -19.813,-19.811c0,-10.934 8.878,-19.812 19.813,-19.812Zm-0,2.733c-9.427,-0 -17.08,7.653 -17.08,17.079c-0,9.426 7.653,17.079 17.08,17.079c9.427,-0 17.08,-7.653 17.08,-17.079c-0,-9.426 -7.653,-17.079 -17.08,-17.079Z" style="fill:rgb(131,133,136);"/>
            </g>
        </g>
        <g id="LEDs">
            <circle cx="617.502" cy="277.137" r="17.286" style="fill:rgb(245,191,197);"/>
            <circle cx="617.502" cy="378.874" r="17.286" style="fill:rgb(180,227,241);"/>
            <path d="M631.058,277.137c-7.11,4.07 -14.228,8.18 -21.308,12.302c0.03,-8.193 0.03,-16.412 -0,-24.605c7.08,4.123 14.198,8.233 21.308,12.303Z" style="fill:rgb(216,78,90);"/>
            <path d="M631.058,378.751c-7.11,4.07 -14.228,8.179 -21.308,12.302c0.03,-8.193 0.03,-16.412 -0,-24.605c7.08,4.123 14.198,8.232 21.308,12.303Z" style="fill:rgb(102,173,180);"/>
            <circle cx="543.626" cy="277.137" r="17.286" style="fill:rgb(125,98,170);"/>
            <circle cx="696.42" cy="277.137" r="17.286" style="fill:rgb(125,98,170);"/>
            <circle cx="787.832" cy="277.137" r="17.286" style="fill:rgb(125,98,170);"/>
            <circle cx="884.832" cy="277.137" r="17.286" style="fill:rgb(125,98,170);"/>
            <circle cx="974.42" cy="277.137" r="17.286" style="fill:rgb(125,98,170);"/>
            <circle cx="543.626" cy="379.272" r="17.286" style="fill:rgb(66,141,148);"/>
            <circle cx="696.42" cy="379.272" r="17.286" style="fill:rgb(66,141,148);"/>
            <circle cx="787.832" cy="379.272" r="17.286" style="fill:rgb(66,141,148);"/>
            <circle cx="884.832" cy="379.272" r="17.286" style="fill:rgb(66,141,148);"/>
            <circle cx="974.42" cy="379.272" r="17.286" style="fill:rgb(66,141,148);"/>
        </g>
    </g>
    <g id="Left-in" serif:id="Left in">
        <path d="M355.348,366.843l5.339,-0.002l0.142,-4.522l20.66,-0.007l-0.142,4.523l5.379,-0.002l0.162,-5.149l7.602,-0.002c0.484,-1.68 2.073,-2.924 3.918,-2.925l69.677,-0.024c2.178,-0 3.891,1.734 3.824,3.87l-0.06,1.925l2.711,-0.001l-0.195,6.208l41.794,-0.014l-0.025,0.781l5.184,-0.002c1.216,0 2.173,0.968 2.136,2.162l0.017,-0.565l14.75,-0.82l5.405,4.368l-0.156,5.234l-5.543,4.347l-14.822,-1.454l-0.009,0.276c-0.038,1.193 -1.055,2.162 -2.272,2.163l-5.183,0.001l-0.016,0.508l-41.794,0.014l-0.195,6.193l-2.711,0.001l-0.063,1.988c-0.067,2.136 -1.889,3.871 -4.067,3.872l-69.677,0.024c-1.775,0 -3.241,-1.152 -3.687,-2.734l-7.655,0.002l0.166,-5.312l-5.378,0.002l-0.144,4.578l-20.66,0.007l0.144,-4.578l-5.339,0.001l0.754,-24.002l-0.898,28.581l-19.527,0.007c-0.631,-0 -1.128,-0.503 -1.109,-1.123l0.366,-31.791c0.019,-0.619 0.548,-1.123 1.179,-1.123l20.16,-0.007l-0.142,4.523Zm-21.304,0.007l-0.15,24.936l0.15,-24.936Z" style="fill:rgb(66,141,148);"/>
        <path d="M330.845,379.19l0.074,-12.358l0.068,0l0.039,-3.418c0,-0.02 0.001,-0.041 0.001,-0.062c0.072,-2.274 1.984,-4.149 4.302,-4.15l20.16,-0.007c0.846,0 1.656,0.343 2.245,0.95c0.163,0.168 0.305,0.353 0.425,0.55c0.549,-0.902 1.541,-1.501 2.669,-1.501l20.66,-0.007c0.846,-0.001 1.656,0.342 2.245,0.95c0.1,0.103 0.193,0.212 0.277,0.327c0.476,-1.122 1.587,-1.904 2.877,-1.905c-0,0 5.725,-0.002 5.724,-0.001c1.316,-1.766 3.436,-2.925 5.796,-2.926l69.677,-0.024c3.532,-0.001 6.37,2.522 6.873,5.82c0.699,0.089 1.351,0.413 1.847,0.924c0.588,0.608 0.906,1.428 0.879,2.274l-0.094,2.983l38.569,-0.013c0.764,-0.001 1.499,0.279 2.068,0.78l3.091,-0.001c1.466,-0 2.772,0.575 3.717,1.506l13.013,-0.724c0.774,-0.043 1.536,0.203 2.138,0.69l5.405,4.367c0.76,0.614 1.188,1.548 1.159,2.524l-0.155,5.234c-0.028,0.927 -0.466,1.794 -1.195,2.366l-5.544,4.347c-0.632,0.496 -1.432,0.729 -2.233,0.651l-12.439,-1.22c-0.985,1.338 -2.577,2.219 -4.358,2.22l-3.491,0.001c-0.492,0.321 -1.079,0.508 -1.708,0.508c-0,0 -38.767,0.013 -38.767,0.013l-0.1,3.167c-0.05,1.606 -1.306,2.898 -2.883,3.018c-0.606,3.308 -3.572,5.869 -7.08,5.87l-69.677,0.024c-2.299,0 -4.304,-1.076 -5.561,-2.734l-5.781,0.002c-0.846,0.001 -1.656,-0.342 -2.245,-0.95c-0.279,-0.287 -0.497,-0.623 -0.647,-0.986c-0.572,0.734 -1.465,1.204 -2.464,1.204l-20.66,0.007c-0.846,0 -1.656,-0.342 -2.245,-0.95c-0.163,-0.168 -0.305,-0.352 -0.425,-0.549c-0.549,0.901 -1.541,1.501 -2.669,1.501l-19.527,0.007c-2.415,0 -4.289,-1.943 -4.234,-4.303l0.184,-15.996Zm23.72,12.588l5.339,-0.001l-0.144,4.578l20.66,-0.007l0.144,-4.578l5.378,-0.002l-0.166,5.312l7.655,-0.002c0.446,1.582 1.912,2.734 3.687,2.734l69.677,-0.024c2.178,-0.001 4,-1.736 4.067,-3.872l0.063,-1.988l2.711,-0.001l0.195,-6.193l41.794,-0.014l0.016,-0.508l5.183,-0.001c0.006,-0 0.011,-0 0.016,-0c0.004,0.004 0.008,0.008 0.012,0.012c0.588,0.607 1.398,0.95 2.244,0.95l-1.194,-1.234c0.059,-0.032 0.117,-0.066 0.172,-0.103l1.031,1.061l2.935,-2.837l0.014,0.001l-2.685,2.825c1.495,-0.125 2.699,-1.305 2.846,-2.809l11.712,1.149l5.543,-4.347l0.156,-5.234l-5.405,-4.368l-14.75,0.82l-0.017,0.565c0.037,-1.194 -0.92,-2.162 -2.136,-2.162l-5.184,0.002l0.025,-0.781l-41.794,0.014l0.195,-6.208l-2.711,0.001l0.06,-1.925c0.067,-2.136 -1.646,-3.87 -3.824,-3.87l-69.677,0.024c-1.845,0.001 -3.434,1.245 -3.918,2.925l-7.602,0.002l-0.162,5.149l-5.379,0.002l0.142,-4.523l-20.66,0.007l-0.142,4.522l-5.339,0.002l0.142,-4.523l-20.16,0.007c-0.631,0 -1.16,0.504 -1.179,1.123l-0.366,31.791c-0.019,0.62 0.478,1.123 1.109,1.123l19.527,-0.007l0.144,-4.579Zm168.531,-3.605c0.349,-0 0.686,-0.058 1,-0.164l-0.773,-0.076l-0.227,0.24Z" style="fill:white;"/>
        <rect x="516.01" y="371.502" width="3.964" height="15.71" style="fill:rgb(35,31,32);"/>
        <rect x="126.263" y="369.305" width="211.005" height="19.934" style="fill:rgb(66,141,148);"/>
    </g>
    <g id="Right-in" serif:id="Right in">
        <path d="M355.348,265.051l5.339,-0.002l0.142,-4.523l20.66,-0.007l-0.142,4.523l5.379,-0.002l0.162,-5.149l7.602,-0.002c0.484,-1.679 2.073,-2.924 3.918,-2.925l69.677,-0.023c2.178,-0.001 3.891,1.733 3.824,3.87l-0.06,1.925l2.711,-0.001l-0.195,6.207l41.794,-0.014l-0.025,0.782l5.184,-0.002c1.216,-0.001 2.173,0.968 2.136,2.161l0.017,-0.564l14.75,-0.82l5.405,4.367l-0.156,5.234l-5.543,4.347l-14.822,-1.454l-0.009,0.276c-0.038,1.193 -1.055,2.163 -2.272,2.163l-5.183,0.002l-0.016,0.507l-41.794,0.014l-0.195,6.193l-2.711,0.001l-0.063,1.988c-0.067,2.136 -1.889,3.872 -4.067,3.872l-69.677,0.024c-1.775,0 -3.241,-1.151 -3.687,-2.734l-7.655,0.003l0.166,-5.313l-5.378,0.002l-0.144,4.578l-20.66,0.007l0.144,-4.578l-5.339,0.002l0.754,-24.002l-0.898,28.58l-19.527,0.007c-0.631,0 -1.128,-0.503 -1.109,-1.122l0.366,-31.792c0.019,-0.619 0.548,-1.122 1.179,-1.122l20.16,-0.007l-0.142,4.523Zm-21.304,0.007l-0.15,24.935l0.15,-24.935Z" style="fill:rgb(125,97,170);"/>
        <path d="M330.845,277.397l0.074,-12.358l0.068,0l0.039,-3.417c0,-0.021 0.001,-0.042 0.001,-0.063c0.072,-2.274 1.984,-4.149 4.302,-4.149l20.16,-0.007c0.846,-0.001 1.656,0.342 2.245,0.95c0.163,0.168 0.305,0.352 0.425,0.549c0.549,-0.901 1.541,-1.501 2.669,-1.501l20.66,-0.007c0.846,-0 1.656,0.342 2.245,0.95c0.1,0.103 0.193,0.213 0.277,0.328c0.476,-1.122 1.587,-1.905 2.877,-1.906c-0,0 5.725,-0.001 5.724,-0.001c1.316,-1.766 3.436,-2.925 5.796,-2.926l69.677,-0.023c3.532,-0.001 6.37,2.521 6.873,5.819c0.699,0.089 1.351,0.413 1.847,0.925c0.588,0.607 0.906,1.427 0.879,2.273l-0.094,2.983l38.569,-0.013c0.764,-0 1.499,0.279 2.068,0.781l3.091,-0.001c1.466,-0.001 2.772,0.574 3.717,1.505l13.013,-0.724c0.774,-0.043 1.536,0.203 2.138,0.69l5.405,4.368c0.76,0.614 1.188,1.547 1.159,2.523l-0.155,5.234c-0.028,0.927 -0.466,1.794 -1.195,2.366l-5.544,4.347c-0.632,0.496 -1.432,0.729 -2.233,0.651l-12.439,-1.22c-0.985,1.338 -2.577,2.219 -4.358,2.22l-3.491,0.001c-0.492,0.322 -1.079,0.508 -1.708,0.508c-0,0 -38.767,0.013 -38.767,0.013l-0.1,3.168c-0.05,1.606 -1.306,2.897 -2.883,3.017c-0.606,3.308 -3.572,5.869 -7.08,5.87l-69.677,0.024c-2.299,0.001 -4.304,-1.075 -5.561,-2.733l-5.781,0.002c-0.846,-0 -1.656,-0.343 -2.245,-0.95c-0.279,-0.288 -0.497,-0.624 -0.647,-0.987c-0.572,0.734 -1.465,1.204 -2.464,1.204l-20.66,0.007c-0.846,0.001 -1.656,-0.342 -2.245,-0.949c-0.163,-0.169 -0.305,-0.353 -0.425,-0.55c-0.549,0.902 -1.541,1.501 -2.669,1.501l-19.527,0.007c-2.415,0.001 -4.289,-1.943 -4.234,-4.303l0.184,-15.996Zm192.251,8.983c0.349,0 0.686,-0.057 1,-0.163l-0.773,-0.076l-0.227,0.239Zm-168.531,3.606l5.339,-0.002l-0.144,4.578l20.66,-0.007l0.144,-4.578l5.378,-0.002l-0.166,5.313l7.655,-0.003c0.446,1.583 1.912,2.734 3.687,2.734l69.677,-0.024c2.178,-0 4,-1.736 4.067,-3.872l0.063,-1.988l2.711,-0.001l0.195,-6.193l41.794,-0.014l0.016,-0.507l5.183,-0.002c0.006,-0 0.011,-0 0.016,-0c0.004,0.004 0.008,0.008 0.012,0.012c0.588,0.607 1.398,0.95 2.244,0.95l-1.194,-1.234c0.059,-0.032 0.117,-0.066 0.172,-0.102l1.031,1.06l2.935,-2.837l0.014,0.002l-2.685,2.824c1.495,-0.125 2.699,-1.305 2.846,-2.809l11.712,1.149l5.543,-4.347l0.156,-5.234l-5.405,-4.367l-14.75,0.82l-0.017,0.564c0.037,-1.193 -0.92,-2.162 -2.136,-2.161l-5.184,0.002l0.025,-0.782l-41.794,0.014l0.195,-6.207l-2.711,0.001l0.06,-1.925c0.067,-2.137 -1.646,-3.871 -3.824,-3.87l-69.677,0.023c-1.845,0.001 -3.434,1.246 -3.918,2.925l-7.602,0.002l-0.162,5.149l-5.379,0.002l0.142,-4.523l-20.66,0.007l-0.142,4.523l-5.339,0.002l0.142,-4.523l-20.16,0.007c-0.631,-0 -1.16,0.503 -1.179,1.122l-0.366,31.792c-0.019,0.619 0.478,1.122 1.109,1.122l19.527,-0.007l0.144,-4.578Z" style="fill:white;"/>
        <rect x="516.01" y="269.709" width="3.964" height="15.71" style="fill:rgb(35,31,32);"/>
        <rect x="126.263" y="267.513" width="211.005" height="19.934" style="fill:rgb(125,97,170);"/>
    </g>
</svg>
